{"glyphs":{"0":{"ha":791,"x_min":65,"x_max":725,"o":"m 65 208 l 65 765 q 126 913 65 852 q 273 974 187 974 l 517 974 q 664 913 603 974 q 725 765 725 852 l 725 208 q 664 61 725 122 q 517 0 604 0 l 273 0 q 126 61 187 0 q 65 208 65 122 m 204 385 l 582 787 q 557 822 574 808 q 517 835 539 835 l 273 835 q 225 814 245 835 q 204 765 204 793 l 204 385 m 208 186 q 233 152 216 165 q 273 139 251 139 l 517 139 q 565 160 545 139 q 586 208 586 180 l 586 589 l 208 186 z "},"1":{"ha":791,"x_min":64,"x_max":728,"o":"m 83 22 q 74 33 83 22 q 64 70 64 43 q 83 117 64 96 q 135 139 102 139 l 326 139 l 326 836 l 135 836 q 83 858 102 836 q 64 906 64 880 q 83 954 64 932 q 135 975 102 975 l 396 975 q 445 954 424 975 q 465 905 465 932 l 465 139 l 657 139 q 709 117 690 139 q 728 70 728 96 q 709 22 728 43 q 657 0 690 0 l 135 0 q 83 22 102 0 z "},"2":{"ha":791,"x_min":64,"x_max":726,"o":"m 64 69 l 64 244 q 93 358 64 307 q 168 443 121 409 q 269 504 214 476 q 380 556 325 532 q 482 603 436 579 q 557 660 528 627 q 586 730 586 692 q 556 805 586 774 q 482 836 526 836 l 309 836 q 234 805 264 836 q 203 730 203 774 q 181 680 203 698 q 133 661 159 661 q 85 680 107 661 q 64 730 64 698 q 136 903 64 831 q 309 975 208 975 l 482 975 q 654 904 583 975 q 725 730 725 832 q 696 616 725 667 q 621 532 667 566 q 519 470 575 498 q 408 419 464 442 q 307 371 353 395 q 232 315 260 347 q 203 244 203 283 l 203 139 l 656 139 q 708 117 689 139 q 726 70 726 96 q 708 22 726 43 q 656 0 689 0 l 134 0 q 85 21 106 0 q 64 69 64 41 z "},"3":{"ha":791,"x_min":64,"x_max":726,"o":"m 64 208 q 85 260 64 241 q 133 279 107 279 q 181 260 159 279 q 203 208 203 241 q 223 160 203 180 q 272 139 244 139 l 518 139 q 567 160 546 139 q 587 208 587 180 l 587 349 q 567 398 587 378 q 518 419 546 419 l 304 419 q 253 441 271 419 q 234 489 234 463 q 253 536 234 515 q 304 558 271 558 l 518 558 q 567 579 547 558 q 587 628 587 600 l 587 768 q 567 817 587 797 q 518 838 547 838 l 272 838 q 223 817 243 838 q 203 768 203 797 q 181 716 203 735 q 133 698 159 698 q 85 716 107 698 q 64 768 64 735 q 125 916 64 854 q 272 977 186 977 l 518 977 q 666 916 605 977 q 726 768 726 854 l 726 628 q 673 489 726 549 q 726 349 726 427 l 726 208 q 666 61 726 122 q 518 0 605 0 l 272 0 q 125 61 186 0 q 64 208 64 122 z "},"4":{"ha":791,"x_min":64,"x_max":726,"o":"m 64 279 l 64 464 q 79 557 64 522 l 268 932 q 288 960 275 949 q 315 974 301 971 q 345 974 330 977 q 372 962 360 971 q 393 942 385 954 q 403 913 402 930 q 397 879 404 897 l 203 494 l 203 349 l 403 349 l 403 488 q 425 539 403 521 q 472 558 446 558 q 520 539 498 558 q 542 488 542 521 l 542 349 l 656 349 q 708 327 689 349 q 726 279 726 305 q 708 231 726 253 q 656 210 689 210 l 542 210 l 542 69 q 520 17 542 36 q 472 -1 498 -1 q 425 17 446 -1 q 403 69 403 36 l 403 210 l 134 210 q 82 231 101 210 q 64 279 64 252 z "},"5":{"ha":791,"x_min":64,"x_max":728,"o":"m 64 208 q 85 260 64 241 q 133 279 107 279 q 181 260 159 279 q 203 208 203 241 q 223 160 203 180 q 272 139 244 139 l 518 139 q 567 160 546 139 q 587 208 587 180 l 587 349 q 567 398 587 378 q 518 419 546 419 l 135 419 q 86 440 107 419 q 65 489 65 461 l 65 907 q 86 956 65 935 q 135 977 107 977 l 657 977 q 709 955 690 977 q 728 907 728 933 q 709 859 728 881 q 657 838 690 838 l 204 838 l 204 558 l 518 558 q 665 497 604 558 q 726 349 726 435 l 726 208 q 666 61 726 122 q 518 0 605 0 l 272 0 q 125 61 186 0 q 64 208 64 122 z "},"6":{"ha":791,"x_min":65,"x_max":726,"o":"m 65 208 l 65 349 q 92 450 65 399 l 334 935 q 366 967 345 958 q 407 972 387 977 q 444 954 427 967 q 465 919 461 941 q 458 872 469 897 l 300 557 l 518 557 q 666 496 605 557 q 726 349 726 435 l 726 208 q 666 61 726 122 q 518 0 605 0 l 273 0 q 126 61 187 0 q 65 208 65 122 m 204 208 q 224 159 204 180 q 273 139 245 139 l 518 139 q 567 159 547 139 q 587 208 587 180 l 587 349 q 567 397 587 377 q 518 418 547 418 l 273 418 q 224 397 245 418 q 204 349 204 377 l 204 208 z "},"7":{"ha":791,"x_min":64,"x_max":726,"o":"m 83 857 q 74 867 83 857 q 64 904 64 878 q 83 952 64 930 q 135 974 102 974 l 657 974 q 706 953 685 974 q 726 904 726 932 l 726 762 q 708 659 726 692 l 375 139 l 375 69 q 353 18 375 37 q 306 0 332 0 q 258 18 279 0 q 236 69 236 37 l 236 113 q 254 211 236 183 l 587 726 l 587 835 l 135 835 q 83 857 102 835 z "},"8":{"ha":791,"x_min":64,"x_max":726,"o":"m 64 208 l 64 349 q 117 489 64 427 q 64 628 64 549 l 64 768 q 125 916 64 854 q 272 977 186 977 l 518 977 q 666 916 605 977 q 726 768 726 854 l 726 628 q 673 489 726 549 q 726 349 726 427 l 726 208 q 666 61 726 122 q 518 0 605 0 l 272 0 q 125 61 186 0 q 64 208 64 122 m 203 208 q 223 160 203 180 q 272 139 244 139 l 518 139 q 567 160 546 139 q 587 208 587 180 l 587 349 q 567 398 587 378 q 518 419 546 419 l 272 419 q 223 398 244 419 q 203 349 203 378 l 203 208 m 203 628 q 223 579 203 600 q 272 558 244 558 l 518 558 q 567 579 547 558 q 587 628 587 600 l 587 768 q 567 817 587 797 q 518 838 547 838 l 272 838 q 223 817 243 838 q 203 768 203 797 l 203 628 z "},"9":{"ha":791,"x_min":65,"x_max":726,"o":"m 65 625 l 65 765 q 126 913 65 852 q 273 974 187 974 l 518 974 q 665 913 604 974 q 726 765 726 852 l 726 625 q 700 524 726 575 l 458 39 q 426 6 447 16 q 385 1 405 -4 q 348 20 365 7 q 327 55 331 33 q 334 102 323 77 l 492 416 l 273 416 q 126 477 187 416 q 65 625 65 538 m 204 625 q 225 576 204 597 q 273 555 245 555 l 518 555 q 567 576 547 555 q 587 625 587 597 l 587 765 q 567 814 587 793 q 518 835 547 835 l 273 835 q 225 814 245 835 q 204 765 204 793 l 204 625 z "},"\u0000":{"ha":791,"x_min":0,"x_max":0,"o":""},"\t":{"ha":791,"x_min":0,"x_max":0,"o":""},"\n":{"ha":791,"x_min":0,"x_max":0,"o":""},"\r":{"ha":791,"x_min":0,"x_max":0,"o":""},"\u0010":{"ha":791,"x_min":0,"x_max":0,"o":""},"\u0011":{"ha":791,"x_min":0,"x_max":0,"o":""},"\u0012":{"ha":791,"x_min":0,"x_max":0,"o":""},"\u0013":{"ha":791,"x_min":0,"x_max":0,"o":""},"\u0014":{"ha":791,"x_min":0,"x_max":0,"o":""},"\u001e":{"ha":791,"x_min":0,"x_max":0,"o":""},"\u001f":{"ha":791,"x_min":65,"x_max":726,"o":"m 65 243 q 87 294 65 275 q 135 312 109 312 q 182 294 161 312 q 204 243 204 275 q 235 169 204 199 q 310 138 266 138 l 484 138 q 557 168 527 138 q 587 243 587 199 q 558 314 587 281 q 484 370 530 346 q 382 417 437 394 q 271 469 326 441 q 169 531 215 497 q 94 615 123 564 q 65 729 65 666 q 136 902 65 830 q 309 974 208 974 l 329 974 l 329 1025 q 351 1077 329 1058 q 398 1095 372 1095 q 446 1077 425 1095 q 468 1025 468 1058 l 468 974 l 484 974 q 655 903 585 974 q 726 730 726 831 q 705 679 726 697 q 657 660 683 660 q 609 679 631 660 q 587 730 587 697 q 557 804 587 773 q 484 835 526 835 l 309 835 q 235 804 266 835 q 204 729 204 772 q 233 658 204 690 q 308 602 262 626 q 410 554 354 578 q 521 503 465 531 q 623 441 576 475 q 697 357 669 408 q 726 243 726 306 q 655 70 726 142 q 484 -1 585 -1 l 468 -1 l 468 -57 q 446 -109 468 -90 q 398 -127 425 -127 q 351 -109 372 -127 q 329 -57 329 -90 l 329 -1 l 310 -1 q 137 70 209 -1 q 65 243 65 142 z "}," ":{"ha":791,"x_min":0,"x_max":0,"o":""},"!":{"ha":791,"x_min":326,"x_max":465,"o":"m 326 69 l 326 138 q 348 190 326 171 q 396 208 370 208 q 444 190 422 208 q 465 138 465 171 l 465 69 q 444 17 465 36 q 396 -1 422 -1 q 348 17 370 -1 q 326 69 326 36 m 326 359 l 326 904 q 348 956 326 937 q 396 975 370 975 q 444 956 422 975 q 465 904 465 937 l 465 359 q 444 309 465 327 q 396 290 422 290 q 348 309 370 290 q 326 359 326 327 z "},"\"":{"ha":791,"x_min":201,"x_max":591,"o":"m 201 701 l 201 908 q 223 960 201 941 q 271 979 245 979 q 319 960 297 979 q 340 908 340 941 l 340 701 q 319 649 340 668 q 271 631 297 631 q 223 649 245 631 q 201 701 201 668 m 453 701 l 453 908 q 475 960 453 941 q 522 979 496 979 q 570 960 548 979 q 591 908 591 941 l 591 701 q 570 649 591 668 q 522 631 548 631 q 475 649 496 631 q 453 701 453 668 z "},"#":{"ha":791,"x_min":63,"x_max":728,"o":"m 82 231 q 72 242 82 231 q 63 279 63 253 q 82 327 63 305 q 134 349 100 349 l 187 349 l 187 631 l 134 631 q 82 652 100 631 q 63 700 63 674 q 82 748 63 726 q 134 770 100 770 l 187 770 l 187 904 q 209 956 187 937 q 257 975 231 975 q 304 956 283 975 q 326 904 326 937 l 326 770 l 465 770 l 465 904 q 487 956 465 937 q 535 975 509 975 q 583 956 561 975 q 604 904 604 937 l 604 770 l 657 770 q 709 748 690 770 q 728 700 728 726 q 709 652 728 674 q 657 631 690 631 l 604 631 l 604 349 l 657 349 q 709 327 690 349 q 728 279 728 305 q 709 231 728 253 q 657 210 690 210 l 604 210 l 604 68 q 583 17 604 35 q 535 -1 561 -1 q 487 17 509 -1 q 465 68 465 35 l 465 210 l 326 210 l 326 68 q 304 17 326 35 q 257 -1 283 -1 q 209 17 231 -1 q 187 68 187 35 l 187 210 l 134 210 q 82 231 100 210 m 326 349 l 465 349 l 465 631 l 326 631 l 326 349 z "},"$":{"ha":791,"x_min":65,"x_max":726,"o":"m 65 243 q 87 294 65 275 q 135 312 109 312 q 182 294 161 312 q 204 243 204 275 q 235 169 204 199 q 310 138 266 138 l 484 138 q 557 168 527 138 q 587 243 587 199 q 558 314 587 281 q 484 370 530 346 q 382 417 437 394 q 271 469 326 441 q 169 531 215 497 q 94 615 123 564 q 65 729 65 666 q 136 902 65 830 q 309 974 208 974 l 329 974 l 329 1025 q 351 1077 329 1058 q 398 1095 372 1095 q 446 1077 425 1095 q 468 1025 468 1058 l 468 974 l 484 974 q 655 903 585 974 q 726 730 726 831 q 705 679 726 697 q 657 660 683 660 q 609 679 631 660 q 587 730 587 697 q 557 804 587 773 q 484 835 526 835 l 309 835 q 235 804 266 835 q 204 729 204 772 q 233 658 204 690 q 308 602 262 626 q 410 555 354 578 q 521 504 465 532 q 623 442 576 475 q 697 357 669 408 q 726 243 726 306 q 655 70 726 142 q 484 -1 585 -1 l 468 -1 l 468 -57 q 446 -109 468 -90 q 398 -127 425 -127 q 351 -109 372 -127 q 329 -57 329 -90 l 329 -1 l 310 -1 q 137 70 209 -1 q 65 243 65 142 z "},"%":{"ha":791,"x_min":68,"x_max":725,"o":"m 68 36 l 68 74 q 70 97 68 90 q 79 111 72 103 l 656 901 l 656 939 q 673 969 656 960 q 708 969 690 979 q 725 939 725 960 l 725 901 q 714 864 725 877 l 138 74 l 138 36 q 120 4 138 14 q 85 4 103 -5 q 68 36 68 14 m 68 717 l 68 828 q 111 931 68 888 q 214 974 153 974 q 317 931 274 974 q 359 828 359 888 l 359 717 q 317 613 359 656 q 214 570 274 570 q 111 613 153 570 q 68 717 68 656 m 151 717 q 170 672 151 691 q 214 653 188 653 q 258 672 239 653 q 277 717 277 691 l 277 828 q 258 872 277 853 q 214 890 239 890 q 170 872 188 890 q 151 828 151 853 l 151 717 m 433 147 l 433 258 q 476 361 433 319 q 579 404 519 404 q 682 361 640 404 q 725 258 725 319 l 725 147 q 682 43 725 87 q 579 0 640 0 q 476 43 519 0 q 433 147 433 87 m 517 147 q 535 102 517 121 q 579 83 553 83 q 623 102 605 83 q 642 147 642 121 l 642 258 q 623 302 642 283 q 579 321 605 321 q 535 302 553 321 q 517 258 517 283 l 517 147 z "},"&":{"ha":791,"x_min":83,"x_max":717,"o":"m 83 232 q 147 392 83 316 l 228 492 l 132 616 q 83 750 83 680 q 151 910 83 845 q 315 975 219 975 q 481 910 413 975 q 550 750 550 845 q 497 611 550 680 l 396 489 l 529 317 l 582 376 q 622 400 600 396 q 663 396 645 405 q 693 371 681 387 q 703 333 705 355 q 682 290 701 311 l 612 212 l 694 104 q 701 42 717 75 q 653 4 685 9 q 590 29 621 -1 l 521 114 l 478 66 l 479 66 q 315 0 418 0 q 152 68 220 0 q 83 232 83 136 m 215 232 q 244 162 215 190 q 315 134 273 134 q 386 163 359 134 l 439 221 l 310 385 l 243 302 q 215 232 215 270 m 215 750 q 237 697 215 722 l 314 596 l 395 694 l 395 693 q 416 750 416 718 q 387 817 416 790 q 315 844 357 844 q 244 818 273 844 q 215 750 215 791 z "},"'":{"ha":791,"x_min":326,"x_max":465,"o":"m 326 832 l 326 900 q 348 952 326 933 q 396 970 370 970 q 444 952 422 970 q 465 900 465 933 l 465 757 q 447 718 465 746 l 406 653 q 374 636 394 635 q 345 652 353 637 q 346 686 336 667 l 393 762 q 346 781 366 762 q 326 832 326 800 z "},"(":{"ha":791,"x_min":256,"x_max":534,"o":"m 256 208 l 256 765 q 317 913 256 852 q 464 974 378 974 q 516 952 497 974 q 534 904 534 930 q 516 857 534 878 q 464 835 497 835 q 415 814 436 835 q 395 765 395 793 l 395 208 q 415 160 395 180 q 464 139 436 139 q 516 117 497 139 q 534 70 534 96 q 516 22 534 43 q 464 0 497 0 q 316 61 377 0 q 256 208 256 122 z "},")":{"ha":791,"x_min":256,"x_max":534,"o":"m 274 22 q 265 33 274 22 q 256 70 256 43 q 274 117 256 96 q 326 139 293 139 q 376 160 355 139 q 396 208 396 180 l 396 765 q 375 814 396 793 q 326 835 355 835 q 274 857 293 835 q 256 904 256 878 q 274 952 256 930 q 326 974 293 974 q 473 913 412 974 q 534 765 534 852 l 534 208 q 473 61 534 122 q 326 0 412 0 q 274 22 293 0 z "},"*":{"ha":791,"x_min":174,"x_max":616,"o":"m 199 859 q 177 900 180 877 q 185 940 174 923 q 214 969 197 958 q 254 978 231 981 q 296 957 277 975 l 396 859 l 494 957 q 536 978 513 975 q 576 969 559 981 q 605 940 593 958 q 614 900 616 923 q 593 859 611 877 l 493 760 l 593 660 q 611 630 606 646 q 613 601 616 614 q 602 574 610 587 q 581 553 594 561 q 554 542 568 545 q 524 544 540 538 q 494 562 508 549 l 396 661 l 296 562 q 266 544 282 549 q 236 542 250 538 q 209 553 222 545 q 188 574 196 561 q 177 601 180 587 q 180 630 174 614 q 199 660 185 646 l 297 760 l 199 859 z "},"+":{"ha":791,"x_min":66,"x_max":726,"o":"m 84 439 q 75 450 84 439 q 66 487 66 461 q 84 535 66 513 q 136 557 103 557 l 323 557 l 323 905 q 345 956 323 938 q 393 975 367 975 q 441 956 419 975 q 463 905 463 938 l 463 557 l 656 557 q 708 535 689 557 q 726 487 726 513 q 708 439 726 461 q 656 418 689 418 l 463 418 l 463 69 q 441 17 463 36 q 393 -1 419 -1 q 345 17 367 -1 q 323 69 323 36 l 323 418 l 136 418 q 84 439 103 418 z "},",":{"ha":791,"x_min":326,"x_max":465,"o":"m 326 69 l 326 138 q 348 190 326 171 q 396 208 370 208 q 444 190 422 208 q 465 138 465 171 l 465 0 q 447 -45 465 -18 l 406 -110 q 374 -128 395 -129 q 345 -112 353 -127 q 346 -77 336 -96 l 393 0 q 346 18 366 0 q 326 69 326 37 z "},"-":{"ha":791,"x_min":66,"x_max":726,"o":"m 84 437 q 75 448 84 437 q 66 485 66 458 q 84 532 66 511 q 136 554 103 554 l 656 554 q 708 532 689 554 q 726 485 726 511 q 708 437 726 458 q 656 415 689 415 l 136 415 q 84 437 103 415 z "},".":{"ha":791,"x_min":326,"x_max":465,"o":"m 326 68 l 326 136 q 348 188 326 170 q 396 207 370 207 q 444 188 422 207 q 465 136 465 170 l 465 68 q 444 16 465 35 q 396 -3 422 -3 q 348 16 370 -3 q 326 68 326 35 z "},"/":{"ha":791,"x_min":68,"x_max":725,"o":"m 68 69 l 68 144 q 72 190 68 177 q 92 221 76 203 l 586 829 l 586 904 q 608 955 586 937 q 655 973 629 973 q 703 955 682 973 q 725 904 725 937 l 725 829 q 701 753 725 782 l 207 144 l 207 69 q 185 17 207 36 q 137 -1 163 -1 q 90 17 111 -1 q 68 69 68 36 z "},":":{"ha":791,"x_min":326,"x_max":465,"o":"m 326 69 l 326 138 q 348 190 326 171 q 396 208 370 208 q 444 190 422 208 q 465 138 465 171 l 465 69 q 444 17 465 36 q 396 -1 422 -1 q 348 17 370 -1 q 326 69 326 36 m 326 524 l 326 591 q 348 643 326 625 q 396 662 370 662 q 444 643 422 662 q 465 591 465 625 l 465 524 q 444 472 465 490 q 396 453 422 453 q 348 472 370 453 q 326 524 326 490 z "},";":{"ha":791,"x_min":326,"x_max":465,"o":"m 326 69 l 326 138 q 348 190 326 171 q 396 208 370 208 q 444 190 422 208 q 465 138 465 171 l 465 0 q 447 -45 465 -18 l 406 -110 q 374 -128 395 -129 q 345 -112 353 -127 q 346 -77 336 -96 l 393 0 q 346 18 366 0 q 326 69 326 37 m 326 415 l 326 484 q 348 535 326 517 q 396 554 370 554 q 444 535 422 554 q 465 484 465 517 l 465 415 q 444 363 465 382 q 396 345 422 345 q 348 363 370 345 q 326 415 326 382 z "},"<":{"ha":791,"x_min":65,"x_max":726,"o":"m 65 380 l 65 497 q 82 522 65 510 l 533 842 q 628 878 585 878 l 657 878 q 707 858 687 878 q 726 808 726 838 q 707 759 726 779 q 657 739 687 739 l 632 739 l 204 450 l 204 428 l 632 139 l 657 139 q 707 119 687 139 q 726 69 726 99 q 707 20 726 39 q 657 0 687 0 l 628 0 q 533 36 585 0 l 82 355 q 65 380 65 368 z "},"=":{"ha":791,"x_min":66,"x_max":726,"o":"m 84 229 q 75 239 84 229 q 66 276 66 250 q 84 324 66 302 q 136 346 103 346 l 656 346 q 708 324 689 346 q 726 276 726 302 q 708 229 726 250 q 656 207 689 207 l 136 207 q 84 229 103 207 m 84 659 q 75 670 84 659 q 66 707 66 681 q 84 755 66 733 q 136 777 103 777 l 656 777 q 708 755 689 777 q 726 707 726 733 q 708 659 726 681 q 656 637 689 637 l 136 637 q 84 659 103 637 z "},">":{"ha":791,"x_min":65,"x_max":726,"o":"m 85 20 q 75 30 85 20 q 65 69 65 39 q 85 119 65 99 q 135 139 105 139 l 160 139 l 587 428 l 587 450 l 160 739 l 135 739 q 85 759 105 739 q 65 808 65 779 q 85 858 65 838 q 135 878 105 878 l 164 878 q 258 842 207 878 l 710 522 q 726 497 726 511 l 726 380 q 710 355 726 367 l 258 36 q 164 0 207 0 l 135 0 q 85 20 105 0 z "},"?":{"ha":791,"x_min":65,"x_max":726,"o":"m 65 730 q 136 902 65 831 q 309 974 208 974 l 484 974 q 655 902 585 974 q 726 729 726 831 q 715 648 726 684 q 686 590 704 612 q 644 548 667 567 q 596 516 621 528 q 548 490 571 504 q 506 462 524 475 q 476 428 488 448 q 465 380 465 407 q 444 330 465 348 q 396 311 422 311 q 348 330 370 311 q 326 380 326 348 q 340 471 326 431 q 378 534 355 511 q 429 577 401 558 q 485 610 457 595 q 536 640 513 625 q 573 677 559 655 q 587 729 587 700 q 557 804 587 772 q 484 835 526 835 l 309 835 q 235 804 266 835 q 204 730 204 773 q 182 679 204 697 q 135 660 161 660 q 87 679 109 660 q 65 730 65 697 m 326 69 l 326 138 q 348 190 326 171 q 396 208 370 208 q 444 190 422 208 q 465 138 465 171 l 465 69 q 444 17 465 36 q 396 -1 422 -1 q 348 17 370 -1 q 326 69 326 36 z "},"@":{"ha":791,"x_min":65,"x_max":726,"o":"m 65 210 l 65 349 q 126 496 65 435 q 273 557 187 557 l 396 557 q 445 536 424 557 q 465 488 465 515 l 465 139 l 518 139 q 567 160 546 139 q 587 210 587 180 l 587 765 q 567 814 587 793 q 518 835 547 835 l 273 835 q 225 814 245 835 q 204 765 204 793 q 182 713 204 732 q 135 694 161 694 q 87 713 109 694 q 65 765 65 732 q 126 913 65 852 q 273 974 187 974 l 518 974 q 665 913 604 974 q 726 765 726 852 l 726 210 q 666 62 726 123 q 518 0 605 1 l 309 0 l 310 0 l 273 0 q 126 61 187 0 q 65 210 65 123 m 204 210 q 225 160 204 180 q 273 139 245 139 l 326 139 l 326 418 l 273 418 q 224 397 245 418 q 204 349 204 377 l 204 210 z "},"A":{"ha":791,"x_min":65,"x_max":726,"o":"m 65 69 l 65 449 q 74 533 65 513 l 237 922 q 264 962 250 951 q 309 974 279 974 l 484 974 q 527 962 513 974 q 554 922 541 951 l 718 533 q 726 449 726 515 l 726 69 q 705 17 726 36 q 657 -1 683 -1 q 609 17 631 -1 q 587 69 587 36 l 587 208 l 204 208 l 204 69 q 182 17 204 36 q 135 -1 161 -1 q 87 17 109 -1 q 65 69 65 36 m 204 347 l 587 347 l 587 488 l 437 835 l 354 835 l 204 488 l 204 347 z "},"B":{"ha":791,"x_min":65,"x_max":726,"o":"m 65 69 l 65 905 q 86 954 65 933 q 135 975 108 975 l 518 975 q 665 914 604 975 q 726 766 726 853 l 726 627 q 673 488 726 545 q 726 349 726 428 l 726 208 q 666 61 726 122 q 518 0 605 0 l 135 0 q 86 21 107 0 q 65 69 65 41 m 204 139 l 518 139 q 567 159 547 139 q 587 208 587 179 l 587 349 q 567 398 587 378 q 518 418 547 418 l 204 418 l 204 139 m 204 557 l 518 557 q 567 577 547 557 q 587 627 587 597 l 587 766 q 567 815 587 795 q 518 836 547 836 l 204 836 l 204 557 z "},"C":{"ha":791,"x_min":65,"x_max":725,"o":"m 65 210 l 65 765 q 126 913 65 852 q 273 974 187 974 l 517 974 q 664 913 603 974 q 725 765 725 852 q 703 713 725 732 q 655 694 682 694 q 608 713 629 694 q 586 765 586 732 q 566 814 586 793 q 517 835 545 835 l 273 835 q 225 814 245 835 q 204 765 204 793 l 204 210 q 225 160 204 180 q 273 139 245 139 l 517 139 q 565 160 545 139 q 586 210 586 180 q 608 260 586 242 q 655 279 629 279 q 703 260 682 279 q 725 210 725 242 q 664 61 725 123 q 517 0 603 0 l 273 0 q 126 61 187 0 q 65 210 65 123 z "},"D":{"ha":791,"x_min":65,"x_max":726,"o":"m 65 69 l 65 904 q 86 953 65 932 q 135 974 107 974 l 518 974 q 665 913 604 974 q 726 765 726 852 l 726 210 q 665 61 726 123 q 518 0 604 0 l 135 0 q 86 21 107 0 q 65 69 65 42 m 204 139 l 518 139 q 567 160 547 139 q 587 210 587 180 l 587 765 q 567 814 587 794 q 518 835 547 835 l 204 835 l 204 139 z "},"E":{"ha":791,"x_min":64,"x_max":726,"o":"m 64 69 l 64 904 q 85 953 64 932 q 134 974 106 974 l 656 974 q 708 952 689 974 q 726 904 726 930 q 708 857 726 878 q 656 835 689 835 l 203 835 l 203 555 l 656 555 q 708 534 689 555 q 726 486 726 512 q 708 438 726 460 q 656 416 689 416 l 203 416 l 203 139 l 656 139 q 708 117 689 139 q 726 70 726 96 q 708 22 726 43 q 656 0 689 0 l 134 0 q 85 21 106 0 q 64 69 64 41 z "},"F":{"ha":791,"x_min":64,"x_max":726,"o":"m 64 69 l 64 904 q 85 953 64 932 q 134 974 106 974 l 656 974 q 708 952 689 974 q 726 904 726 930 q 708 857 726 878 q 656 835 689 835 l 203 835 l 203 555 l 656 555 q 708 534 689 555 q 726 486 726 512 q 708 438 726 460 q 656 416 689 416 l 203 416 l 203 69 q 181 17 203 36 q 133 -1 159 -1 q 85 17 107 -1 q 64 69 64 36 z "},"G":{"ha":791,"x_min":65,"x_max":725,"o":"m 65 210 l 65 765 q 126 913 65 852 q 273 974 187 974 l 517 974 q 664 913 603 974 q 725 765 725 852 q 703 713 725 732 q 655 694 682 694 q 608 713 629 694 q 586 765 586 732 q 566 814 586 793 q 517 835 545 835 l 273 835 q 225 814 245 835 q 204 765 204 793 l 204 210 q 225 160 204 180 q 273 139 245 139 l 517 139 q 565 160 545 139 q 586 210 586 180 l 586 416 l 475 416 q 423 438 441 416 q 404 486 404 460 q 423 534 404 512 q 475 555 441 555 l 656 555 q 704 535 684 555 q 725 486 725 514 l 725 210 q 664 61 725 123 q 517 0 603 0 l 273 0 q 126 61 187 0 q 65 210 65 123 z "},"H":{"ha":791,"x_min":65,"x_max":726,"o":"m 65 69 l 65 904 q 87 956 65 937 q 135 975 109 975 q 182 956 161 975 q 204 904 204 937 l 204 555 l 587 555 l 587 904 q 609 956 587 937 q 657 975 631 975 q 705 956 683 975 q 726 904 726 937 l 726 69 q 705 17 726 36 q 657 -1 683 -1 q 609 17 631 -1 q 587 69 587 36 l 587 416 l 204 416 l 204 69 q 182 17 204 36 q 135 -1 161 -1 q 87 17 109 -1 q 65 69 65 36 z "},"I":{"ha":791,"x_min":64,"x_max":728,"o":"m 83 20 q 74 31 83 20 q 64 68 64 42 q 83 116 64 94 q 135 138 102 138 l 326 138 l 326 835 l 135 835 q 83 857 102 835 q 64 904 64 878 q 83 952 64 930 q 135 974 102 974 l 657 974 q 709 952 690 974 q 728 904 728 930 q 709 857 728 878 q 657 835 690 835 l 465 835 l 465 138 l 657 138 q 709 116 690 138 q 728 68 728 94 q 709 20 728 42 q 657 -1 690 -1 l 135 -1 q 83 20 102 -1 z "},"J":{"ha":791,"x_min":64,"x_max":726,"o":"m 83 857 q 74 867 83 857 q 64 904 64 878 q 83 952 64 930 q 135 974 102 974 l 657 974 q 706 953 685 974 q 726 904 726 932 l 726 210 q 665 61 726 123 q 518 0 604 0 l 273 0 q 126 61 187 0 q 65 210 65 123 q 87 260 65 242 q 135 279 109 279 q 182 260 161 279 q 204 210 204 242 q 225 160 204 180 q 273 139 245 139 l 518 139 q 567 160 547 139 q 587 210 587 180 l 587 835 l 135 835 q 83 857 102 835 z "},"K":{"ha":791,"x_min":65,"x_max":726,"o":"m 65 69 l 65 904 q 87 956 65 937 q 135 975 109 975 q 182 956 161 975 q 204 904 204 937 l 204 555 l 364 555 l 587 825 l 587 904 q 609 956 587 937 q 657 975 631 975 q 705 956 683 975 q 726 904 726 937 l 726 859 q 722 777 726 795 q 686 718 714 751 l 488 486 l 686 256 q 721 200 715 222 q 726 127 726 178 q 726 115 726 119 l 726 69 q 705 17 726 36 q 657 -1 683 -1 q 609 17 631 -1 q 587 69 587 36 l 587 149 l 366 416 l 204 416 l 204 69 q 182 17 204 36 q 135 -1 161 -1 q 87 17 109 -1 q 65 69 65 36 z "},"L":{"ha":791,"x_min":64,"x_max":726,"o":"m 64 69 l 64 904 q 85 956 64 937 q 133 975 107 975 q 181 956 159 975 q 203 904 203 937 l 203 139 l 656 139 q 708 117 689 139 q 726 70 726 96 q 708 22 726 43 q 656 0 689 0 l 134 0 q 85 21 106 0 q 64 69 64 41 z "},"M":{"ha":791,"x_min":65,"x_max":726,"o":"m 65 69 l 65 904 q 91 962 65 943 q 130 975 109 975 q 149 972 140 975 q 201 933 182 964 l 396 627 l 590 933 q 642 972 609 964 q 661 975 652 975 q 701 962 683 975 q 726 904 726 943 l 726 69 q 705 17 726 36 q 657 -1 683 -1 q 609 17 631 -1 q 587 69 587 36 l 587 665 l 478 503 q 468 454 468 488 l 468 439 q 446 386 468 404 q 396 367 425 367 q 346 386 368 367 q 323 439 323 405 l 323 454 q 314 503 323 489 l 204 665 l 204 69 q 182 17 204 36 q 135 -1 161 -1 q 87 17 109 -1 q 65 69 65 36 z "},"N":{"ha":791,"x_min":65,"x_max":726,"o":"m 65 68 l 65 907 q 91 962 65 945 q 130 975 109 975 q 150 971 140 974 q 200 935 182 963 l 587 310 l 587 904 q 609 956 587 937 q 657 975 631 975 q 705 956 683 975 q 726 904 726 937 l 726 66 q 701 11 726 28 q 663 -1 684 -1 q 643 2 654 -1 q 593 39 610 11 l 204 663 l 204 68 q 182 18 204 36 q 135 -1 161 -1 q 87 18 109 -1 q 65 68 65 36 z "},"O":{"ha":791,"x_min":65,"x_max":725,"o":"m 65 210 l 65 765 q 126 913 65 852 q 273 974 187 974 l 517 974 q 664 913 603 974 q 725 765 725 852 l 725 210 q 664 61 725 123 q 517 0 603 0 l 273 0 q 126 61 187 0 q 65 210 65 123 m 204 210 q 225 160 204 180 q 273 139 245 139 l 517 139 q 565 160 545 139 q 586 210 586 180 l 586 765 q 566 814 586 793 q 517 835 545 835 l 273 835 q 225 814 245 835 q 204 765 204 793 l 204 210 z "},"P":{"ha":791,"x_min":65,"x_max":726,"o":"m 65 69 l 65 904 q 86 955 65 937 q 135 974 107 974 l 484 974 q 655 903 585 974 q 726 730 726 831 l 726 661 q 655 488 726 559 q 484 416 585 416 l 204 416 l 204 69 q 182 18 204 37 q 135 0 161 0 q 87 18 109 0 q 65 69 65 37 m 204 555 l 484 555 q 557 587 526 555 q 587 661 587 618 l 587 730 q 557 804 587 773 q 484 835 526 835 l 204 835 l 204 555 z "},"Q":{"ha":791,"x_min":65,"x_max":725,"o":"m 65 210 l 65 765 q 126 913 65 852 q 273 974 187 974 l 517 974 q 664 913 603 974 q 725 765 725 852 l 725 210 q 664 61 725 122 q 517 0 604 0 l 273 0 q 126 61 186 0 q 65 210 65 122 m 204 210 q 225 160 204 180 q 273 139 245 139 l 326 139 l 326 272 q 348 324 326 305 q 396 342 370 342 q 444 324 422 342 q 465 272 465 305 l 465 139 l 517 139 q 565 160 545 139 q 586 210 586 180 l 586 765 q 566 814 586 793 q 517 835 545 835 l 273 835 q 225 814 245 835 q 204 765 204 793 l 204 210 z "},"R":{"ha":791,"x_min":65,"x_max":726,"o":"m 65 69 l 65 904 q 86 955 65 937 q 135 974 107 974 l 484 974 q 655 903 585 974 q 726 730 726 831 l 726 661 q 673 509 726 576 q 539 424 621 443 l 677 256 q 718 193 710 216 q 725 114 725 169 l 725 69 q 703 17 725 36 q 655 -1 682 -1 q 608 17 629 -1 q 586 69 586 36 l 586 146 l 364 416 l 204 416 l 204 69 q 182 18 204 37 q 135 0 161 0 q 87 18 109 0 q 65 69 65 37 m 204 555 l 484 555 q 557 587 526 555 q 587 661 587 618 l 587 730 q 557 804 587 773 q 484 835 526 835 l 204 835 l 204 555 z "},"S":{"ha":791,"x_min":65,"x_max":726,"o":"m 65 244 q 87 295 65 277 q 135 313 109 313 q 182 295 161 313 q 204 244 204 277 q 235 170 204 201 q 310 139 266 139 l 484 139 q 557 170 527 139 q 587 244 587 200 q 569 301 587 275 q 521 348 551 328 q 452 387 491 368 q 370 424 413 406 q 283 463 326 443 q 200 509 239 483 q 131 565 161 534 q 83 637 101 595 q 65 729 65 680 q 136 902 65 830 q 309 974 208 974 l 484 974 q 655 903 585 974 q 726 730 726 831 q 705 679 726 697 q 657 660 683 660 q 609 679 631 660 q 587 730 587 697 q 557 804 587 773 q 484 835 526 835 l 309 835 q 235 804 266 835 q 204 729 204 772 q 222 672 204 699 q 270 626 240 646 q 339 587 300 606 q 422 549 378 568 q 509 510 465 530 q 591 465 552 490 q 660 408 630 439 q 708 336 690 378 q 726 244 726 294 q 655 72 726 143 q 484 0 585 0 l 310 0 q 137 72 209 0 q 65 244 65 143 z "},"T":{"ha":791,"x_min":64,"x_max":728,"o":"m 83 857 q 74 867 83 857 q 64 904 64 878 q 83 952 64 930 q 135 974 102 974 l 657 974 q 709 952 690 974 q 728 904 728 930 q 709 857 728 878 q 657 835 690 835 l 465 835 l 465 68 q 444 16 465 35 q 396 -3 422 -3 q 348 16 370 -3 q 326 68 326 35 l 326 835 l 135 835 q 83 857 102 835 z "},"U":{"ha":791,"x_min":65,"x_max":726,"o":"m 65 208 l 65 904 q 87 955 65 937 q 135 973 109 973 q 182 955 161 973 q 204 904 204 937 l 204 208 q 225 160 204 180 q 273 139 245 139 l 518 139 q 567 160 546 139 q 587 208 587 180 l 587 904 q 609 955 587 937 q 657 973 631 973 q 705 955 683 973 q 726 904 726 937 l 726 208 q 666 61 726 122 q 518 0 605 0 l 273 0 q 126 61 187 0 q 65 208 65 122 z "},"V":{"ha":791,"x_min":65,"x_max":726,"o":"m 65 525 l 65 903 q 87 955 65 936 q 135 973 109 973 q 182 955 161 973 q 204 903 204 936 l 204 486 l 354 139 l 437 139 l 587 486 l 587 903 q 609 955 587 936 q 657 973 631 973 q 705 955 683 973 q 726 903 726 936 l 726 525 q 718 440 726 458 l 554 52 q 527 12 541 23 q 484 0 513 0 l 309 0 q 264 12 279 0 q 237 52 250 23 l 74 440 q 65 525 65 460 z "},"W":{"ha":791,"x_min":65,"x_max":726,"o":"m 65 69 l 65 904 q 87 956 65 937 q 135 975 109 975 q 182 956 161 975 q 204 904 204 937 l 204 309 l 314 471 q 323 519 323 484 l 323 534 q 346 588 323 569 q 396 607 368 607 q 446 588 425 607 q 468 534 468 569 l 468 519 q 478 471 468 485 l 587 309 l 587 904 q 609 956 587 937 q 657 975 631 975 q 705 956 683 975 q 726 904 726 937 l 726 69 q 701 12 726 31 q 661 -1 683 -1 q 642 1 651 -1 q 590 40 609 9 l 396 347 l 201 40 q 149 1 182 9 q 130 -1 139 -1 q 91 12 109 -1 q 65 69 65 31 z "},"X":{"ha":791,"x_min":64,"x_max":726,"o":"m 64 68 l 64 111 q 65 170 64 155 q 75 206 66 185 q 104 252 83 227 l 304 484 l 104 717 q 75 762 83 741 q 65 798 66 783 q 64 857 64 813 l 64 904 q 85 956 64 937 q 133 975 107 975 q 181 956 159 975 q 203 904 203 937 l 203 825 l 396 593 l 587 825 l 587 904 q 609 956 587 937 q 657 975 631 975 q 705 956 683 975 q 726 904 726 937 l 726 857 q 722 775 726 793 q 686 717 714 749 l 486 484 l 686 252 q 721 196 715 218 q 726 123 726 174 q 726 111 726 115 l 726 68 q 712 24 726 42 q 677 2 697 6 q 656 0 667 0 q 636 2 646 0 q 602 24 616 6 q 587 69 587 43 l 587 142 l 396 375 l 203 142 l 203 69 q 189 24 203 43 q 153 2 174 6 q 133 0 143 0 q 113 2 123 0 q 78 24 92 6 q 64 68 64 42 z "},"Y":{"ha":791,"x_min":64,"x_max":726,"o":"m 64 859 l 64 904 q 85 956 64 937 q 133 975 107 975 q 181 956 159 975 q 203 904 203 937 l 203 825 l 396 593 l 587 825 l 587 904 q 609 956 587 937 q 657 975 631 975 q 705 956 683 975 q 726 904 726 937 l 726 859 q 722 777 726 795 q 686 718 714 751 l 465 460 l 465 68 q 444 17 465 35 q 396 -1 422 -1 q 348 17 370 -1 q 326 68 326 35 l 326 460 l 104 718 q 75 764 83 743 q 65 800 66 785 q 64 859 64 814 z "},"Z":{"ha":791,"x_min":62,"x_max":726,"o":"m 83 857 q 74 867 83 857 q 64 904 64 878 q 83 952 64 930 q 135 974 102 974 l 660 974 q 718 939 699 974 q 726 906 726 922 q 714 865 726 886 l 258 139 l 654 139 q 706 117 688 139 q 725 70 725 96 q 706 22 725 43 q 654 0 688 0 l 129 0 q 71 35 90 0 q 62 67 62 51 q 75 109 62 87 l 530 835 l 135 835 q 83 857 102 835 z "},"[":{"ha":791,"x_min":256,"x_max":534,"o":"m 256 69 l 256 903 q 276 951 256 930 q 325 972 297 972 l 458 972 q 510 951 492 972 q 529 903 529 929 q 510 855 529 877 q 458 833 492 833 l 395 833 l 395 139 l 464 139 q 516 117 497 139 q 534 70 534 96 q 516 22 534 43 q 464 0 497 0 l 325 0 q 276 21 297 0 q 256 69 256 41 z "},"\\":{"ha":791,"x_min":68,"x_max":725,"o":"m 68 829 l 68 904 q 90 955 68 937 q 137 973 111 973 q 185 955 163 973 q 207 904 207 937 l 207 829 l 701 221 q 721 190 717 203 q 725 144 725 177 l 725 69 q 703 17 725 36 q 655 -1 682 -1 q 608 17 629 -1 q 586 69 586 36 l 586 144 l 92 753 q 68 829 68 782 z "},"]":{"ha":791,"x_min":256,"x_max":534,"o":"m 274 22 q 265 33 274 22 q 256 70 256 43 q 274 117 256 96 q 326 139 293 139 l 396 139 l 396 833 l 332 833 q 281 855 299 833 q 262 903 262 877 q 281 951 262 929 q 332 972 299 972 l 465 972 q 514 951 493 972 q 534 903 534 930 l 534 69 q 514 21 534 41 q 465 0 493 0 l 326 0 q 274 22 293 0 z "},"^":{"ha":791,"x_min":65,"x_max":727,"o":"m 72 456 q 68 462 72 456 q 66 486 65 469 q 77 519 67 503 l 330 933 q 393 975 355 973 q 463 933 431 977 l 715 521 q 726 487 725 504 q 721 457 727 470 q 703 434 714 444 q 677 419 692 423 q 648 416 663 415 q 620 426 634 416 q 596 452 606 435 l 396 774 l 196 450 q 172 425 186 434 q 144 414 158 415 q 115 418 130 414 q 89 432 100 422 q 72 456 78 443 z "},"_":{"ha":791,"x_min":64,"x_max":728,"o":"m 83 20 q 74 31 83 20 q 64 68 64 42 q 83 116 64 94 q 135 138 102 138 l 657 138 q 709 116 690 138 q 728 68 728 94 q 709 20 728 42 q 657 -1 690 -1 l 135 -1 q 83 20 102 -1 z "},"`":{"ha":791,"x_min":208,"x_max":583,"o":"m 231 1117 q 208 1165 208 1137 q 231 1215 208 1193 q 281 1236 253 1236 q 300 1233 291 1236 q 317 1223 309 1230 q 332 1212 326 1217 q 347 1197 337 1207 q 359 1183 356 1187 l 514 1183 q 564 1164 545 1183 q 583 1114 583 1144 q 564 1064 583 1083 q 514 1044 545 1044 l 335 1044 q 302 1053 319 1044 q 277 1068 286 1061 q 252 1095 269 1076 q 231 1117 234 1114 z "},"a":{"ha":791,"x_min":65,"x_max":726,"o":"m 65 69 l 65 449 q 74 533 65 513 l 237 922 q 264 962 250 951 q 309 974 279 974 l 484 974 q 527 962 513 974 q 554 922 541 951 l 718 533 q 726 449 726 515 l 726 69 q 705 17 726 36 q 657 -1 683 -1 q 609 17 631 -1 q 587 69 587 36 l 587 208 l 204 208 l 204 69 q 182 17 204 36 q 135 -1 161 -1 q 87 17 109 -1 q 65 69 65 36 m 204 347 l 587 347 l 587 488 l 437 835 l 354 835 l 204 488 l 204 347 z "},"b":{"ha":791,"x_min":65,"x_max":726,"o":"m 65 69 l 65 905 q 86 954 65 933 q 135 975 108 975 l 518 975 q 665 914 604 975 q 726 766 726 853 l 726 627 q 673 488 726 545 q 726 349 726 428 l 726 208 q 666 61 726 122 q 518 0 605 0 l 135 0 q 86 21 107 0 q 65 69 65 41 m 204 139 l 518 139 q 567 159 547 139 q 587 208 587 179 l 587 349 q 567 398 587 378 q 518 418 547 418 l 204 418 l 204 139 m 204 557 l 518 557 q 567 577 547 557 q 587 627 587 597 l 587 766 q 567 815 587 795 q 518 836 547 836 l 204 836 l 204 557 z "},"c":{"ha":791,"x_min":65,"x_max":725,"o":"m 65 210 l 65 765 q 126 913 65 852 q 273 974 187 974 l 517 974 q 664 913 603 974 q 725 765 725 852 q 703 713 725 732 q 655 694 682 694 q 608 713 629 694 q 586 765 586 732 q 566 814 586 793 q 517 835 545 835 l 273 835 q 225 814 245 835 q 204 765 204 793 l 204 210 q 225 160 204 180 q 273 139 245 139 l 517 139 q 565 160 545 139 q 586 210 586 180 q 608 260 586 242 q 655 279 629 279 q 703 260 682 279 q 725 210 725 242 q 664 61 725 123 q 517 0 603 0 l 273 0 q 126 61 187 0 q 65 210 65 123 z "},"d":{"ha":791,"x_min":65,"x_max":726,"o":"m 65 69 l 65 904 q 86 953 65 932 q 135 974 107 974 l 518 974 q 665 913 604 974 q 726 765 726 852 l 726 210 q 665 61 726 123 q 518 0 604 0 l 135 0 q 86 21 107 0 q 65 69 65 42 m 204 139 l 518 139 q 567 160 547 139 q 587 210 587 180 l 587 765 q 567 814 587 794 q 518 835 547 835 l 204 835 l 204 139 z "},"e":{"ha":791,"x_min":64,"x_max":726,"o":"m 64 69 l 64 904 q 85 953 64 932 q 134 974 106 974 l 656 974 q 708 952 689 974 q 726 904 726 930 q 708 857 726 878 q 656 835 689 835 l 203 835 l 203 555 l 656 555 q 708 534 689 555 q 726 486 726 512 q 708 438 726 460 q 656 416 689 416 l 203 416 l 203 139 l 656 139 q 708 117 689 139 q 726 70 726 96 q 708 22 726 43 q 656 0 689 0 l 134 0 q 85 21 106 0 q 64 69 64 41 z "},"f":{"ha":791,"x_min":64,"x_max":726,"o":"m 64 69 l 64 904 q 85 953 64 932 q 134 974 106 974 l 656 974 q 708 952 689 974 q 726 904 726 930 q 708 857 726 878 q 656 835 689 835 l 203 835 l 203 555 l 656 555 q 708 534 689 555 q 726 486 726 512 q 708 438 726 460 q 656 416 689 416 l 203 416 l 203 69 q 181 17 203 36 q 133 -1 159 -1 q 85 17 107 -1 q 64 69 64 36 z "},"g":{"ha":791,"x_min":65,"x_max":725,"o":"m 65 210 l 65 765 q 126 913 65 852 q 273 974 187 974 l 517 974 q 664 913 603 974 q 725 765 725 852 q 703 713 725 732 q 655 694 682 694 q 608 713 629 694 q 586 765 586 732 q 566 814 586 793 q 517 835 545 835 l 273 835 q 225 814 245 835 q 204 765 204 793 l 204 210 q 225 160 204 180 q 273 139 245 139 l 517 139 q 565 160 545 139 q 586 210 586 180 l 586 416 l 475 416 q 423 438 441 416 q 404 486 404 460 q 423 534 404 512 q 475 555 441 555 l 656 555 q 704 535 684 555 q 725 486 725 514 l 725 210 q 664 61 725 123 q 517 0 603 0 l 273 0 q 126 61 187 0 q 65 210 65 123 z "},"h":{"ha":791,"x_min":65,"x_max":726,"o":"m 65 69 l 65 904 q 87 956 65 937 q 135 975 109 975 q 182 956 161 975 q 204 904 204 937 l 204 555 l 587 555 l 587 904 q 609 956 587 937 q 657 975 631 975 q 705 956 683 975 q 726 904 726 937 l 726 69 q 705 17 726 36 q 657 -1 683 -1 q 609 17 631 -1 q 587 69 587 36 l 587 416 l 204 416 l 204 69 q 182 17 204 36 q 135 -1 161 -1 q 87 17 109 -1 q 65 69 65 36 z "},"i":{"ha":791,"x_min":64,"x_max":728,"o":"m 83 20 q 74 31 83 20 q 64 68 64 42 q 83 116 64 94 q 135 138 102 138 l 326 138 l 326 835 l 135 835 q 83 857 102 835 q 64 904 64 878 q 83 952 64 930 q 135 974 102 974 l 657 974 q 709 952 690 974 q 728 904 728 930 q 709 857 728 878 q 657 835 690 835 l 465 835 l 465 138 l 657 138 q 709 116 690 138 q 728 68 728 94 q 709 20 728 42 q 657 -1 690 -1 l 135 -1 q 83 20 102 -1 z "},"j":{"ha":791,"x_min":64,"x_max":726,"o":"m 83 857 q 74 867 83 857 q 64 904 64 878 q 83 952 64 930 q 135 974 102 974 l 657 974 q 706 953 685 974 q 726 904 726 932 l 726 210 q 665 61 726 123 q 518 0 604 0 l 273 0 q 126 61 187 0 q 65 210 65 123 q 87 260 65 242 q 135 279 109 279 q 182 260 161 279 q 204 210 204 242 q 225 160 204 180 q 273 139 245 139 l 518 139 q 567 160 547 139 q 587 210 587 180 l 587 835 l 135 835 q 83 857 102 835 z "},"k":{"ha":791,"x_min":65,"x_max":726,"o":"m 65 69 l 65 904 q 87 956 65 937 q 135 975 109 975 q 182 956 161 975 q 204 904 204 937 l 204 555 l 364 555 l 587 825 l 587 904 q 609 956 587 937 q 657 975 631 975 q 705 956 683 975 q 726 904 726 937 l 726 859 q 722 777 726 795 q 686 718 714 751 l 488 486 l 686 256 q 721 200 715 222 q 726 127 726 178 q 726 115 726 119 l 726 69 q 705 17 726 36 q 657 -1 683 -1 q 609 17 631 -1 q 587 69 587 36 l 587 149 l 366 416 l 204 416 l 204 69 q 182 17 204 36 q 135 -1 161 -1 q 87 17 109 -1 q 65 69 65 36 z "},"l":{"ha":791,"x_min":64,"x_max":726,"o":"m 64 69 l 64 904 q 85 956 64 937 q 133 975 107 975 q 181 956 159 975 q 203 904 203 937 l 203 139 l 656 139 q 708 117 689 139 q 726 70 726 96 q 708 22 726 43 q 656 0 689 0 l 134 0 q 85 21 106 0 q 64 69 64 41 z "},"m":{"ha":791,"x_min":65,"x_max":726,"o":"m 65 69 l 65 904 q 91 962 65 943 q 130 975 109 975 q 149 972 140 975 q 201 933 182 964 l 396 627 l 590 933 q 642 972 609 964 q 661 975 652 975 q 701 962 683 975 q 726 904 726 943 l 726 69 q 705 17 726 36 q 657 -1 683 -1 q 609 17 631 -1 q 587 69 587 36 l 587 665 l 478 503 q 468 454 468 488 l 468 439 q 446 386 468 404 q 396 367 425 367 q 346 386 368 367 q 323 439 323 405 l 323 454 q 314 503 323 489 l 204 665 l 204 69 q 182 17 204 36 q 135 -1 161 -1 q 87 17 109 -1 q 65 69 65 36 z "},"n":{"ha":791,"x_min":65,"x_max":726,"o":"m 65 68 l 65 907 q 91 962 65 945 q 130 975 109 975 q 150 971 140 974 q 200 935 182 963 l 587 310 l 587 904 q 609 956 587 937 q 657 975 631 975 q 705 956 683 975 q 726 904 726 937 l 726 66 q 701 11 726 28 q 663 -1 684 -1 q 643 2 654 -1 q 593 39 610 11 l 204 663 l 204 68 q 182 18 204 36 q 135 -1 161 -1 q 87 18 109 -1 q 65 68 65 36 z "},"o":{"ha":791,"x_min":65,"x_max":725,"o":"m 65 210 l 65 765 q 126 913 65 852 q 273 974 187 974 l 517 974 q 664 913 603 974 q 725 765 725 852 l 725 210 q 664 61 725 123 q 517 0 603 0 l 273 0 q 126 61 187 0 q 65 210 65 123 m 204 210 q 225 160 204 180 q 273 139 245 139 l 517 139 q 565 160 545 139 q 586 210 586 180 l 586 765 q 566 814 586 793 q 517 835 545 835 l 273 835 q 225 814 245 835 q 204 765 204 793 l 204 210 z "},"p":{"ha":791,"x_min":65,"x_max":726,"o":"m 65 69 l 65 904 q 86 955 65 937 q 135 974 107 974 l 484 974 q 655 903 585 974 q 726 730 726 831 l 726 661 q 655 488 726 559 q 484 416 585 416 l 204 416 l 204 69 q 182 18 204 37 q 135 0 161 0 q 87 18 109 0 q 65 69 65 37 m 204 555 l 484 555 q 557 587 526 555 q 587 661 587 618 l 587 730 q 557 804 587 773 q 484 835 526 835 l 204 835 l 204 555 z "},"q":{"ha":791,"x_min":65,"x_max":725,"o":"m 65 210 l 65 765 q 126 913 65 852 q 273 974 187 974 l 517 974 q 664 913 603 974 q 725 765 725 852 l 725 210 q 664 61 725 122 q 517 0 604 0 l 273 0 q 126 61 186 0 q 65 210 65 122 m 204 210 q 225 160 204 180 q 273 139 245 139 l 326 139 l 326 272 q 348 324 326 305 q 396 342 370 342 q 444 324 422 342 q 465 272 465 305 l 465 139 l 517 139 q 565 160 545 139 q 586 210 586 180 l 586 765 q 566 814 586 793 q 517 835 545 835 l 273 835 q 225 814 245 835 q 204 765 204 793 l 204 210 z "},"r":{"ha":791,"x_min":65,"x_max":726,"o":"m 65 69 l 65 904 q 86 955 65 937 q 135 974 107 974 l 484 974 q 655 903 585 974 q 726 730 726 831 l 726 661 q 673 509 726 576 q 539 424 621 443 l 677 256 q 718 193 710 216 q 725 114 725 169 l 725 69 q 703 17 725 36 q 655 -1 682 -1 q 608 17 629 -1 q 586 69 586 36 l 586 146 l 364 416 l 204 416 l 204 69 q 182 18 204 37 q 135 0 161 0 q 87 18 109 0 q 65 69 65 37 m 204 555 l 484 555 q 557 587 526 555 q 587 661 587 618 l 587 730 q 557 804 587 773 q 484 835 526 835 l 204 835 l 204 555 z "},"s":{"ha":791,"x_min":65,"x_max":726,"o":"m 65 244 q 87 295 65 277 q 135 313 109 313 q 182 295 161 313 q 204 244 204 277 q 235 170 204 201 q 310 139 266 139 l 484 139 q 557 170 527 139 q 587 244 587 200 q 569 301 587 275 q 521 348 551 328 q 452 387 491 368 q 370 424 413 406 q 283 463 326 443 q 200 509 239 483 q 131 565 161 534 q 83 637 101 595 q 65 729 65 680 q 136 902 65 830 q 309 974 208 974 l 484 974 q 655 903 585 974 q 726 730 726 831 q 705 679 726 697 q 657 660 683 660 q 609 679 631 660 q 587 730 587 697 q 557 804 587 773 q 484 835 526 835 l 309 835 q 235 804 266 835 q 204 729 204 772 q 222 672 204 699 q 270 626 240 646 q 339 587 300 606 q 422 549 378 568 q 509 510 465 530 q 591 465 552 490 q 660 408 630 439 q 708 336 690 378 q 726 244 726 294 q 655 72 726 143 q 484 0 585 0 l 310 0 q 137 72 209 0 q 65 244 65 143 z "},"t":{"ha":791,"x_min":64,"x_max":728,"o":"m 83 857 q 74 867 83 857 q 64 904 64 878 q 83 952 64 930 q 135 974 102 974 l 657 974 q 709 952 690 974 q 728 904 728 930 q 709 857 728 878 q 657 835 690 835 l 465 835 l 465 68 q 444 16 465 35 q 396 -3 422 -3 q 348 16 370 -3 q 326 68 326 35 l 326 835 l 135 835 q 83 857 102 835 z "},"u":{"ha":791,"x_min":65,"x_max":726,"o":"m 65 208 l 65 904 q 87 955 65 937 q 135 973 109 973 q 182 955 161 973 q 204 904 204 937 l 204 208 q 225 160 204 180 q 273 139 245 139 l 518 139 q 567 160 546 139 q 587 208 587 180 l 587 904 q 609 955 587 937 q 657 973 631 973 q 705 955 683 973 q 726 904 726 937 l 726 208 q 666 61 726 122 q 518 0 605 0 l 273 0 q 126 61 187 0 q 65 208 65 122 z "},"v":{"ha":791,"x_min":65,"x_max":726,"o":"m 65 525 l 65 903 q 87 955 65 936 q 135 973 109 973 q 182 955 161 973 q 204 903 204 936 l 204 486 l 354 139 l 437 139 l 587 486 l 587 903 q 609 955 587 936 q 657 973 631 973 q 705 955 683 973 q 726 903 726 936 l 726 525 q 718 440 726 458 l 554 52 q 527 12 541 23 q 484 0 513 0 l 309 0 q 264 12 279 0 q 237 52 250 23 l 74 440 q 65 525 65 460 z "},"w":{"ha":791,"x_min":65,"x_max":726,"o":"m 65 69 l 65 904 q 87 956 65 937 q 135 975 109 975 q 182 956 161 975 q 204 904 204 937 l 204 309 l 314 471 q 323 519 323 484 l 323 534 q 346 588 323 569 q 396 607 368 607 q 446 588 425 607 q 468 534 468 569 l 468 519 q 478 471 468 485 l 587 309 l 587 904 q 609 956 587 937 q 657 975 631 975 q 705 956 683 975 q 726 904 726 937 l 726 69 q 701 12 726 31 q 661 -1 683 -1 q 642 1 651 -1 q 590 40 609 9 l 396 347 l 201 40 q 149 1 182 9 q 130 -1 139 -1 q 91 12 109 -1 q 65 69 65 31 z "},"x":{"ha":791,"x_min":64,"x_max":726,"o":"m 64 68 l 64 111 q 65 170 64 155 q 75 206 66 185 q 104 252 83 227 l 304 484 l 104 717 q 75 762 83 741 q 65 798 66 783 q 64 857 64 813 l 64 904 q 85 956 64 937 q 133 975 107 975 q 181 956 159 975 q 203 904 203 937 l 203 825 l 396 593 l 587 825 l 587 904 q 609 956 587 937 q 657 975 631 975 q 705 956 683 975 q 726 904 726 937 l 726 857 q 722 775 726 793 q 686 717 714 749 l 486 484 l 686 252 q 721 196 715 218 q 726 123 726 174 q 726 111 726 115 l 726 68 q 712 24 726 42 q 677 2 697 6 q 656 0 667 0 q 636 2 646 0 q 602 24 616 6 q 587 69 587 43 l 587 142 l 396 375 l 203 142 l 203 69 q 189 24 203 43 q 153 2 174 6 q 133 0 143 0 q 113 2 123 0 q 78 24 92 6 q 64 68 64 42 z "},"y":{"ha":791,"x_min":64,"x_max":726,"o":"m 64 859 l 64 904 q 85 956 64 937 q 133 975 107 975 q 181 956 159 975 q 203 904 203 937 l 203 825 l 396 593 l 587 825 l 587 904 q 609 956 587 937 q 657 975 631 975 q 705 956 683 975 q 726 904 726 937 l 726 859 q 722 777 726 795 q 686 718 714 751 l 465 460 l 465 68 q 444 17 465 35 q 396 -1 422 -1 q 348 17 370 -1 q 326 68 326 35 l 326 460 l 104 718 q 75 764 83 743 q 65 800 66 785 q 64 859 64 814 z "},"z":{"ha":791,"x_min":62,"x_max":726,"o":"m 83 857 q 74 867 83 857 q 64 904 64 878 q 83 952 64 930 q 135 974 102 974 l 660 974 q 718 939 699 974 q 726 906 726 922 q 714 865 726 886 l 258 139 l 654 139 q 706 117 688 139 q 725 70 725 96 q 706 22 725 43 q 654 0 688 0 l 129 0 q 71 35 90 0 q 62 67 62 51 q 75 109 62 87 l 530 835 l 135 835 q 83 857 102 835 z "},"{":{"ha":791,"x_min":210,"x_max":582,"o":"m 210 488 q 230 538 210 519 q 282 557 251 557 q 296 564 290 557 q 302 579 302 570 l 302 765 q 365 912 302 850 q 513 974 427 974 q 562 954 543 974 q 582 904 582 934 q 562 854 582 874 q 513 835 543 835 q 463 814 484 835 q 441 765 441 793 l 441 579 q 414 488 441 528 q 441 395 441 446 l 441 208 q 463 160 441 180 q 513 139 484 139 q 562 119 543 139 q 582 69 582 99 q 562 20 582 39 q 513 0 543 0 q 364 61 426 0 q 302 208 302 122 l 302 395 q 297 411 302 404 q 282 418 291 418 q 231 437 252 418 q 210 488 210 457 z "},"|":{"ha":791,"x_min":326,"x_max":465,"o":"m 326 69 l 326 904 q 348 956 326 937 q 396 975 370 975 q 444 956 422 975 q 465 904 465 937 l 465 69 q 444 17 465 36 q 396 -1 422 -1 q 348 17 370 -1 q 326 69 326 36 z "},"}":{"ha":791,"x_min":210,"x_max":582,"o":"m 230 20 q 220 30 230 20 q 210 69 210 39 q 230 119 210 99 q 279 139 250 139 q 328 159 308 139 q 349 208 349 180 l 349 395 q 378 488 349 444 q 349 579 349 530 l 349 765 q 328 814 349 793 q 279 835 308 835 q 230 854 250 835 q 210 904 210 874 q 230 954 210 934 q 279 974 250 974 q 427 912 366 974 q 488 765 488 850 l 488 579 q 494 563 488 570 q 510 557 500 557 q 561 538 541 557 q 582 488 582 519 q 561 437 582 457 q 510 418 541 418 q 494 410 501 418 q 488 395 488 403 l 488 208 q 427 61 488 122 q 279 0 366 0 q 230 20 250 0 z "},"~":{"ha":791,"x_min":159,"x_max":632,"o":"m 174 450 q 170 456 174 450 q 163 477 166 463 q 164 507 159 491 q 183 536 170 523 l 232 585 q 285 607 254 607 l 378 607 q 399 603 391 607 q 421 585 406 600 l 450 555 l 481 555 l 510 585 q 551 606 528 603 q 592 597 574 608 q 621 568 609 585 q 629 528 632 551 q 608 486 627 505 l 559 437 q 505 416 538 416 l 425 416 q 371 437 392 416 l 340 468 l 313 468 l 282 437 q 253 419 269 424 q 222 417 237 414 q 195 429 208 420 q 174 450 182 437 z "},"":{"ha":791,"x_min":0,"x_max":0,"o":""}," ":{"ha":791,"x_min":71,"x_max":724,"o":"m 71 43 l 71 932 q 84 962 71 950 q 118 974 98 974 l 676 974 q 710 962 696 974 q 724 932 724 950 l 724 43 q 709 13 724 25 q 676 0 695 0 l 118 0 q 84 13 98 0 q 71 43 71 25 m 121 97 l 368 486 l 121 875 l 121 97 m 143 930 l 397 528 l 650 930 l 143 930 m 146 43 l 647 43 l 396 441 l 146 43 m 427 486 l 673 96 l 673 879 l 427 486 z "},"¡":{"ha":791,"x_min":326,"x_max":465,"o":"m 326 69 l 326 614 q 348 666 326 647 q 396 684 370 684 q 444 666 422 684 q 465 614 465 647 l 465 69 q 444 17 465 36 q 396 -1 422 -1 q 348 17 370 -1 q 326 69 326 36 m 326 836 l 326 904 q 348 956 326 937 q 396 975 370 975 q 444 956 422 975 q 465 904 465 937 l 465 836 q 444 784 465 803 q 396 766 422 766 q 348 784 370 766 q 326 836 326 803 z "},"¢":{"ha":791,"x_min":65,"x_max":725,"o":"m 65 210 l 65 765 q 126 913 65 852 q 273 974 187 974 l 329 974 l 329 975 q 351 1027 329 1008 q 398 1046 372 1046 q 446 1027 425 1046 q 468 975 468 1008 l 468 974 l 517 974 q 664 913 603 974 q 725 765 725 852 q 703 713 725 732 q 655 694 682 694 q 608 713 629 694 q 586 765 586 732 q 566 814 586 793 q 517 835 545 835 l 468 835 l 468 139 l 517 139 q 565 160 545 139 q 586 210 586 180 q 608 260 586 242 q 655 279 629 279 q 703 260 682 279 q 725 210 725 242 q 664 61 725 123 q 517 0 603 0 l 468 0 q 446 -52 468 -33 q 398 -71 425 -71 q 351 -52 372 -71 q 329 0 329 -33 l 273 0 q 126 61 187 0 q 65 210 65 123 m 204 210 q 225 160 204 180 q 273 139 245 139 l 329 139 l 329 835 l 273 835 q 225 814 245 835 q 204 765 204 793 l 204 210 z "},"£":{"ha":791,"x_min":66,"x_max":726,"o":"m 84 341 q 75 352 84 341 q 66 389 66 363 q 84 437 66 415 q 136 458 103 458 l 200 458 l 200 525 l 136 525 q 84 547 103 525 q 66 594 66 568 q 84 642 66 621 q 136 664 103 664 l 200 664 l 200 765 q 261 913 200 852 q 408 974 322 974 l 518 974 q 665 913 604 974 q 726 765 726 852 q 705 713 726 732 q 657 694 683 694 q 609 713 631 694 q 587 765 587 732 q 567 814 587 793 q 518 835 546 835 l 408 835 q 359 814 380 835 q 339 765 339 793 l 339 664 l 503 664 q 553 642 535 664 q 572 594 572 621 q 553 547 572 568 q 503 525 535 525 l 339 525 l 339 458 l 503 458 q 553 437 535 458 q 572 389 572 415 q 553 341 572 363 q 503 319 535 319 l 339 319 l 339 139 l 587 139 l 587 208 q 609 260 587 241 q 657 279 631 279 q 705 260 683 279 q 726 208 726 241 l 726 69 q 705 21 726 41 q 657 0 684 0 l 269 0 q 221 21 242 0 q 200 69 200 41 l 200 319 l 136 319 q 84 341 103 319 z "},"¤":{"ha":791,"x_min":66,"x_max":726,"o":"m 84 341 q 75 352 84 341 q 66 389 66 363 q 84 437 66 415 q 136 458 103 458 l 200 458 l 200 525 l 136 525 q 84 547 103 525 q 66 594 66 568 q 84 642 66 621 q 136 664 103 664 l 200 664 l 200 765 q 261 913 200 852 q 408 974 322 974 l 518 974 q 665 913 604 974 q 726 765 726 852 q 705 713 726 732 q 657 694 683 694 q 609 713 631 694 q 587 765 587 732 q 567 814 587 793 q 518 835 546 835 l 408 835 q 359 814 380 835 q 339 765 339 793 l 339 664 l 503 664 q 553 642 535 664 q 572 594 572 621 q 553 547 572 568 q 503 525 535 525 l 339 525 l 339 458 l 503 458 q 553 437 535 458 q 572 389 572 415 q 553 341 572 363 q 503 319 535 319 l 339 319 l 339 208 q 359 159 339 180 q 408 139 380 139 l 518 139 q 567 160 546 139 q 587 208 587 180 q 609 260 587 241 q 657 279 631 279 q 705 260 683 279 q 726 208 726 241 q 666 61 726 122 q 518 0 605 0 l 408 0 q 261 61 321 0 q 200 208 200 122 l 200 319 l 136 319 q 84 341 103 319 z "},"¥":{"ha":791,"x_min":64,"x_max":726,"o":"m 83 172 q 74 182 83 172 q 64 219 64 193 q 83 267 64 245 q 135 289 102 289 l 326 289 l 326 396 l 135 396 q 83 418 102 396 q 64 465 64 439 q 83 513 64 491 q 135 534 102 534 l 262 534 l 106 718 q 76 764 85 743 q 66 800 67 785 q 65 859 65 814 l 65 904 q 87 956 65 937 q 135 975 109 975 q 182 956 161 975 q 204 904 204 937 l 204 825 l 396 593 l 587 825 l 587 904 q 609 956 587 937 q 657 975 631 975 q 705 956 683 975 q 726 904 726 937 l 726 859 q 722 777 726 795 q 686 718 714 751 l 529 534 l 654 534 q 705 513 687 534 q 724 465 724 491 q 705 418 724 439 q 654 396 687 396 l 465 396 l 465 289 l 654 289 q 705 267 687 289 q 724 219 724 245 q 705 172 724 193 q 654 150 687 150 l 465 150 l 465 68 q 444 17 465 35 q 396 -1 422 -1 q 348 17 370 -1 q 326 68 326 35 l 326 150 l 135 150 q 83 172 102 150 z "},"¦":{"ha":791,"x_min":326,"x_max":465,"o":"m 326 71 l 326 278 q 348 330 326 311 q 396 349 370 349 q 444 330 422 349 q 465 278 465 311 l 465 71 q 444 19 465 37 q 396 0 422 0 q 348 19 370 0 q 326 71 326 37 m 326 701 l 326 908 q 348 960 326 941 q 396 979 370 979 q 444 960 422 979 q 465 908 465 941 l 465 701 q 444 649 465 668 q 396 631 422 631 q 348 649 370 631 q 326 701 326 668 z "},"§":{"ha":791,"x_min":65,"x_max":726,"o":"m 65 104 q 85 154 65 134 q 135 174 105 174 q 184 154 165 174 q 204 104 204 134 q 235 30 204 61 q 310 -1 266 -1 l 484 -1 q 557 30 527 -1 q 587 104 587 60 q 578 140 587 123 q 559 168 570 157 q 526 193 549 179 q 492 213 504 207 q 452 232 480 219 q 416 248 423 244 l 197 349 q 109 425 142 374 q 77 538 77 476 q 94 622 77 581 q 143 692 112 663 q 65 872 65 768 q 136 1045 65 973 q 309 1117 208 1117 l 484 1117 q 655 1046 585 1117 q 726 873 726 975 q 707 824 726 843 q 657 804 688 804 q 607 824 627 804 q 587 873 587 843 q 557 947 587 916 q 484 978 526 978 l 309 978 q 235 947 265 978 q 204 872 204 916 q 209 842 204 857 q 227 815 214 828 q 250 793 240 802 q 280 773 259 785 q 311 757 302 762 q 345 741 319 752 q 374 728 370 730 l 593 625 q 681 549 648 600 q 714 437 714 498 q 696 353 714 394 q 646 282 677 311 q 648 281 646 281 q 650 279 650 280 q 726 104 726 207 q 655 -69 726 3 q 484 -140 585 -140 l 310 -140 q 137 -68 209 -140 q 65 104 65 3 m 215 538 q 227 500 215 518 q 256 475 238 483 l 475 372 q 505 366 490 366 q 554 387 534 366 q 575 436 575 408 q 534 500 575 479 l 315 602 q 285 608 300 608 q 235 588 256 608 q 215 538 215 567 z "},"¨":{"ha":791,"x_min":65,"x_max":726,"o":"m 65 1111 l 65 1179 q 87 1231 65 1213 q 135 1250 109 1250 q 182 1231 161 1250 q 204 1179 204 1213 l 204 1111 q 182 1059 204 1078 q 135 1040 161 1040 q 87 1059 109 1040 q 65 1111 65 1078 m 587 1111 l 587 1179 q 609 1231 587 1213 q 657 1250 631 1250 q 705 1231 683 1250 q 726 1179 726 1213 l 726 1111 q 705 1059 726 1078 q 657 1040 683 1040 q 609 1059 631 1040 q 587 1111 587 1078 z "},"©":{"ha":791,"x_min":65,"x_max":725,"o":"m 65 187 l 65 786 q 122 919 65 863 q 260 974 180 974 l 530 974 q 668 919 610 974 q 725 786 725 863 l 725 187 q 668 55 725 109 q 530 0 611 0 l 260 0 q 122 55 179 0 q 65 187 65 109 m 143 187 q 177 108 143 140 q 260 75 212 75 l 530 75 q 613 108 578 75 q 647 187 647 140 l 647 786 q 612 865 647 832 q 530 899 578 899 l 260 899 q 178 865 212 899 q 143 786 143 832 l 143 187 m 231 349 l 231 627 q 261 700 231 669 q 335 730 292 730 l 456 730 q 529 700 499 730 q 559 627 559 669 q 542 596 559 605 q 508 596 525 587 q 490 627 490 605 q 480 651 490 642 q 456 661 471 661 l 335 661 q 310 651 320 661 q 300 627 300 642 l 300 349 q 310 324 300 334 q 335 314 320 314 l 456 314 q 480 324 471 314 q 490 349 490 334 q 508 379 490 370 q 542 379 525 389 q 559 349 559 370 q 529 274 559 304 q 456 244 499 244 l 335 244 q 261 275 292 244 q 231 349 231 305 z "},"ª":{"ha":791,"x_min":71,"x_max":724,"o":"m 71 43 l 71 932 q 84 962 71 950 q 118 974 98 974 l 676 974 q 710 962 696 974 q 724 932 724 950 l 724 43 q 709 13 724 25 q 676 0 695 0 l 118 0 q 84 13 98 0 q 71 43 71 25 m 121 97 l 368 486 l 121 875 l 121 97 m 143 930 l 397 528 l 650 930 l 143 930 m 146 43 l 647 43 l 396 441 l 146 43 m 427 486 l 673 96 l 673 879 l 427 486 z "},"«":{"ha":791,"x_min":0,"x_max":791,"o":"m 0 463 l 0 511 q 17 564 0 540 l 294 937 q 326 966 309 958 q 375 974 342 974 l 418 974 q 468 954 448 974 q 488 904 488 934 q 468 854 488 874 q 418 835 448 835 l 389 835 l 139 492 l 139 482 l 389 139 l 418 139 q 468 119 448 139 q 488 69 488 99 q 468 20 488 39 q 418 0 448 0 l 375 0 q 326 7 342 0 q 294 36 309 15 l 17 410 q 0 463 0 433 m 304 463 l 304 511 q 321 564 304 541 l 599 937 q 630 966 614 959 q 679 974 646 974 l 722 974 q 772 954 752 974 q 791 904 791 934 q 772 854 791 874 q 722 835 752 835 l 693 835 l 443 492 l 443 482 l 693 139 l 722 139 q 772 119 752 139 q 791 69 791 99 q 772 20 791 39 q 722 0 752 0 l 679 0 q 630 7 646 0 q 599 36 614 15 l 321 410 q 304 463 304 432 z "},"¬":{"ha":791,"x_min":64,"x_max":726,"o":"m 83 437 q 74 448 83 437 q 64 485 64 458 q 83 532 64 511 q 135 554 102 554 l 657 554 q 709 532 691 554 q 726 481 726 511 l 726 69 q 705 17 726 36 q 657 -1 683 -1 q 609 17 631 -1 q 587 69 587 36 l 587 415 l 135 415 q 83 437 102 415 z "},"­":{"ha":791,"x_min":66,"x_max":726,"o":"m 84 437 q 75 448 84 437 q 66 485 66 458 q 84 532 66 511 q 136 554 103 554 l 656 554 q 708 532 689 554 q 726 485 726 511 q 708 437 726 458 q 656 415 689 415 l 136 415 q 84 437 103 415 z "},"®":{"ha":791,"x_min":65,"x_max":725,"o":"m 65 187 l 65 786 q 122 919 65 863 q 260 974 180 974 l 530 974 q 668 919 610 974 q 725 786 725 863 l 725 187 q 668 55 725 109 q 530 0 611 0 l 260 0 q 122 55 179 0 q 65 187 65 109 m 143 187 q 177 108 143 140 q 260 75 212 75 l 530 75 q 613 108 578 75 q 647 187 647 140 l 647 786 q 612 865 647 832 q 530 899 578 899 l 260 899 q 178 865 212 899 q 143 786 143 832 l 143 187 m 248 263 q 239 268 248 263 q 231 294 231 273 l 231 713 q 241 739 231 730 q 265 747 251 747 l 439 747 q 525 712 490 747 q 561 625 561 676 l 561 590 q 534 515 561 548 q 468 472 508 481 l 538 389 q 557 356 553 368 q 561 318 561 345 l 561 297 q 544 266 561 275 q 509 266 526 256 q 492 297 492 275 l 492 318 q 489 336 492 328 l 380 469 l 300 469 l 300 294 q 282 263 300 273 q 248 263 265 254 m 300 539 l 439 539 q 476 554 460 539 q 492 590 492 569 l 492 625 q 476 662 492 647 q 439 677 460 677 l 300 677 l 300 539 z "},"¯":{"ha":791,"x_min":64,"x_max":728,"o":"m 83 437 q 74 448 83 437 q 64 485 64 458 q 83 532 64 511 q 135 554 102 554 l 657 554 q 709 532 690 554 q 728 485 728 511 q 709 437 728 458 q 657 415 690 415 l 135 415 q 83 437 102 415 z "},"°":{"ha":791,"x_min":153,"x_max":639,"o":"m 153 663 l 153 732 q 224 904 153 833 q 396 975 295 975 q 568 904 497 975 q 639 732 639 833 l 639 663 q 568 489 639 561 q 396 418 497 418 q 224 490 295 418 q 153 663 153 562 m 292 663 q 322 588 292 619 q 396 557 353 557 q 470 588 439 557 q 500 663 500 618 l 500 732 q 470 805 500 774 q 396 836 439 836 q 322 805 353 836 q 292 732 292 774 l 292 663 z "},"±":{"ha":791,"x_min":66,"x_max":726,"o":"m 84 20 q 75 31 84 20 q 66 68 66 42 q 84 116 66 94 q 136 138 103 138 l 323 138 l 323 415 l 136 415 q 84 437 103 415 q 66 485 66 458 q 84 532 66 511 q 136 554 103 554 l 323 554 l 323 905 q 345 956 323 938 q 393 975 367 975 q 441 956 419 975 q 463 905 463 938 l 463 554 l 656 554 q 708 532 689 554 q 726 485 726 511 q 708 437 726 458 q 656 415 689 415 l 463 415 l 463 138 l 656 138 q 708 116 689 138 q 726 68 726 94 q 708 20 726 42 q 656 -1 689 -1 l 136 -1 q 84 20 103 -1 z "},"²":{"ha":791,"x_min":229,"x_max":566,"o":"m 229 522 l 229 610 q 249 675 229 646 q 297 721 268 704 q 360 753 326 737 q 422 782 393 770 q 471 812 452 793 q 490 852 490 830 q 475 890 490 874 q 439 905 460 905 l 351 905 q 314 890 330 905 q 298 852 298 874 q 281 822 298 831 q 247 822 264 812 q 229 852 229 831 q 265 939 229 903 q 351 975 300 975 l 439 975 q 524 939 489 975 q 559 852 559 903 q 540 787 559 816 q 492 742 521 758 q 429 709 463 725 q 366 681 395 692 q 318 650 337 669 q 298 610 298 632 l 298 557 l 525 557 q 556 539 547 557 q 556 505 566 522 q 525 488 547 488 l 264 488 q 240 498 250 488 q 229 522 229 509 z "},"³":{"ha":791,"x_min":229,"x_max":561,"o":"m 229 591 q 247 622 229 613 q 281 622 264 631 q 298 591 298 613 q 309 566 298 576 q 334 555 319 555 l 456 555 q 481 566 471 555 q 492 591 492 576 l 492 661 q 481 686 492 676 q 456 696 471 696 l 350 696 q 318 713 328 696 q 318 748 309 730 q 350 765 328 765 l 456 765 q 481 775 471 765 q 492 800 492 785 l 492 871 q 481 896 492 886 q 456 905 471 905 l 334 905 q 309 896 319 905 q 298 871 298 886 q 281 840 298 849 q 247 840 264 831 q 229 871 229 849 q 260 944 229 913 q 334 975 291 975 l 456 975 q 530 944 499 975 q 561 871 561 913 l 561 800 q 533 730 561 760 q 561 661 561 701 l 561 591 q 530 517 561 548 q 456 486 499 486 l 334 486 q 260 517 291 486 q 229 591 229 548 z "},"´":{"ha":791,"x_min":208,"x_max":583,"o":"m 228 1064 q 218 1074 228 1064 q 208 1114 208 1084 q 228 1163 208 1143 q 278 1183 248 1183 l 432 1183 q 449 1200 434 1185 q 469 1219 463 1215 q 488 1230 475 1224 q 513 1236 500 1236 q 562 1215 541 1236 q 583 1165 583 1193 q 562 1117 583 1138 q 541 1095 558 1113 q 516 1069 524 1076 q 491 1053 507 1061 q 458 1044 475 1044 l 278 1044 q 228 1064 248 1044 z "},"µ":{"ha":791,"x_min":71,"x_max":724,"o":"m 71 43 l 71 932 q 84 962 71 950 q 118 974 98 974 l 676 974 q 710 962 696 974 q 724 932 724 950 l 724 43 q 709 13 724 25 q 676 0 695 0 l 118 0 q 84 13 98 0 q 71 43 71 25 m 121 97 l 368 486 l 121 875 l 121 97 m 143 930 l 397 528 l 650 930 l 143 930 m 146 43 l 647 43 l 396 441 l 146 43 m 427 486 l 673 96 l 673 879 l 427 486 z "},"¶":{"ha":791,"x_min":65,"x_max":726,"o":"m 65 660 l 65 729 q 137 901 65 830 q 309 972 208 972 l 657 972 q 707 954 687 972 q 726 904 726 935 l 726 68 q 705 17 726 35 q 657 -1 683 -1 q 609 17 631 -1 q 587 68 587 35 l 587 833 l 471 833 l 471 69 q 449 17 471 36 q 401 -1 427 -1 q 353 17 375 -1 q 332 69 332 36 l 332 415 l 309 415 q 137 487 208 415 q 65 660 65 559 z "},"·":{"ha":791,"x_min":326,"x_max":465,"o":"m 326 415 l 326 484 q 348 535 326 517 q 396 554 370 554 q 444 535 422 554 q 465 484 465 517 l 465 415 q 444 363 465 382 q 396 345 422 345 q 348 363 370 345 q 326 415 326 382 z "},"¸":{"ha":791,"x_min":326,"x_max":465,"o":"m 326 1 l 326 69 q 348 121 326 102 q 396 140 370 140 q 444 121 422 140 q 465 69 465 102 l 465 -68 q 447 -113 465 -85 l 406 -178 q 374 -196 395 -197 q 345 -179 353 -195 q 346 -144 336 -164 l 393 -68 q 346 -50 366 -68 q 326 1 326 -31 z "},"¹":{"ha":791,"x_min":225,"x_max":566,"o":"m 265 488 q 234 505 243 488 q 234 539 225 522 q 265 557 243 557 l 361 557 l 361 905 l 265 905 q 234 923 243 905 q 234 958 225 940 q 265 975 243 975 l 396 975 q 420 964 410 975 q 431 940 431 954 l 431 557 l 526 557 q 557 539 548 557 q 557 505 566 522 q 526 488 548 488 l 265 488 z "},"º":{"ha":791,"x_min":71,"x_max":724,"o":"m 71 43 l 71 932 q 84 962 71 950 q 118 974 98 974 l 676 974 q 710 962 696 974 q 724 932 724 950 l 724 43 q 709 13 724 25 q 676 0 695 0 l 118 0 q 84 13 98 0 q 71 43 71 25 m 121 97 l 368 486 l 121 875 l 121 97 m 143 930 l 397 528 l 650 930 l 143 930 m 146 43 l 647 43 l 396 441 l 146 43 m 427 486 l 673 96 l 673 879 l 427 486 z "},"»":{"ha":791,"x_min":0,"x_max":791,"o":"m 20 20 q 10 30 20 20 q 0 69 0 39 q 20 119 0 99 q 69 139 39 139 l 98 139 l 349 482 l 349 492 l 98 835 l 69 835 q 20 854 39 835 q 0 904 0 874 q 20 954 0 934 q 69 974 39 974 l 113 974 q 162 966 146 974 q 193 937 178 958 l 471 564 q 488 511 488 540 l 488 463 q 471 410 488 433 l 193 36 q 162 7 178 15 q 113 0 146 0 l 69 0 q 20 20 39 0 m 324 20 q 314 30 324 20 q 304 69 304 39 q 324 119 304 99 q 374 139 344 139 l 403 139 l 653 482 l 653 492 l 403 835 l 374 835 q 324 854 344 835 q 304 904 304 874 q 324 954 304 934 q 374 974 344 974 l 416 974 q 466 966 450 974 q 497 937 482 958 l 775 564 q 791 511 791 541 l 791 463 q 775 410 791 432 l 497 36 q 466 7 482 15 q 416 0 450 0 l 374 0 q 324 20 344 0 z "},"¼":{"ha":791,"x_min":-5,"x_max":796,"o":"m 0 36 l 0 74 q 2 97 0 91 q 11 111 3 103 l 722 901 l 722 939 q 740 969 722 960 q 774 969 757 979 q 791 939 791 960 l 791 901 q 781 864 791 877 l 69 74 l 69 36 q 52 4 69 14 q 17 4 35 -5 q 0 36 0 14 m 36 482 q 4 499 14 482 q 4 534 -5 517 q 36 551 14 551 l 132 551 l 132 900 l 36 900 q 4 917 14 900 q 4 952 -5 935 q 36 970 14 970 l 167 970 q 191 959 180 970 q 201 935 201 948 l 201 551 l 297 551 q 328 534 319 551 q 328 499 337 517 q 297 482 319 482 l 36 482 m 460 140 l 460 233 q 468 279 460 263 l 549 467 q 577 489 557 487 q 609 475 596 490 q 614 440 622 460 l 529 249 l 529 175 l 629 175 l 629 244 q 647 276 629 267 q 681 276 664 285 q 699 244 699 267 l 699 175 l 755 175 q 787 158 778 175 q 787 123 796 140 q 755 106 778 106 l 699 106 l 699 36 q 681 4 699 14 q 647 4 664 -5 q 629 36 629 14 l 629 106 l 494 106 q 469 116 479 106 q 460 140 460 127 z "},"½":{"ha":791,"x_min":-5,"x_max":796,"o":"m 0 36 l 0 74 q 2 97 0 91 q 11 111 3 103 l 722 901 l 722 939 q 740 969 722 960 q 774 969 757 979 q 791 939 791 960 l 791 901 q 781 864 791 877 l 69 74 l 69 36 q 52 4 69 14 q 17 4 35 -5 q 0 36 0 14 m 36 482 q 4 499 14 482 q 4 534 -5 517 q 36 551 14 551 l 132 551 l 132 900 l 36 900 q 4 917 14 900 q 4 952 -5 935 q 36 970 14 970 l 167 970 q 191 959 180 970 q 201 935 201 948 l 201 551 l 297 551 q 328 534 319 551 q 328 499 337 517 q 297 482 319 482 l 36 482 m 460 35 l 460 122 q 474 179 460 153 q 511 222 488 205 q 562 253 534 239 q 618 279 590 267 q 669 302 646 290 q 707 330 692 314 q 721 366 721 347 q 706 402 721 387 q 669 418 691 418 l 582 418 q 545 402 560 418 q 529 366 529 387 q 512 335 529 344 q 477 335 494 326 q 460 366 460 344 q 496 452 460 416 q 582 488 532 488 l 669 488 q 755 452 720 488 q 790 366 790 416 q 771 301 790 330 q 722 255 751 272 q 660 222 693 239 q 597 194 626 206 q 548 163 568 182 q 529 122 529 144 l 529 69 l 755 69 q 787 52 778 69 q 787 17 796 35 q 755 0 778 0 l 494 0 q 470 11 481 0 q 460 35 460 21 z "},"¾":{"ha":791,"x_min":0,"x_max":796,"o":"m 0 36 l 0 74 q 2 97 0 91 q 11 111 3 103 l 722 901 l 722 939 q 740 969 722 960 q 774 969 757 979 q 791 939 791 960 l 791 901 q 781 864 791 877 l 69 74 l 69 36 q 52 4 69 14 q 17 4 35 -5 q 0 36 0 14 m 0 590 q 17 621 0 612 q 52 621 35 630 q 69 590 69 612 q 80 566 69 576 q 104 555 90 555 l 228 555 q 252 566 242 555 q 262 590 262 576 l 262 660 q 252 685 262 675 q 228 696 241 696 l 121 696 q 89 713 98 696 q 89 748 80 730 q 121 765 98 765 l 228 765 q 252 775 241 765 q 262 800 262 785 l 262 869 q 252 894 262 884 q 228 904 242 904 l 104 904 q 80 894 90 904 q 69 869 69 884 q 52 839 69 848 q 17 839 35 829 q 0 869 0 848 q 31 943 0 913 q 104 974 62 974 l 228 974 q 301 943 271 974 q 332 869 332 913 l 332 800 q 306 730 332 761 q 332 660 332 698 l 332 590 q 301 516 332 547 q 228 486 271 486 l 104 486 q 31 516 62 486 q 0 590 0 547 m 460 140 l 460 233 q 468 279 460 263 l 562 467 q 591 489 571 487 q 623 475 610 490 q 627 440 635 460 l 529 249 l 529 175 l 629 175 l 629 244 q 647 276 629 267 q 681 276 664 285 q 699 244 699 267 l 699 175 l 755 175 q 787 158 778 175 q 787 123 796 140 q 755 106 778 106 l 699 106 l 699 36 q 681 4 699 14 q 647 4 664 -5 q 629 36 629 14 l 629 106 l 494 106 q 469 116 479 106 q 460 140 460 127 z "},"¿":{"ha":791,"x_min":65,"x_max":726,"o":"m 65 244 q 76 325 65 289 q 106 384 87 361 q 148 426 124 406 q 196 457 171 445 q 244 484 220 469 q 286 511 267 498 q 315 546 304 525 q 326 593 326 566 q 348 644 326 625 q 396 662 370 662 q 444 644 422 662 q 465 593 465 625 q 451 502 465 542 q 414 439 437 463 q 362 396 391 415 q 307 363 334 378 q 256 333 279 349 q 218 296 233 318 q 204 244 204 273 q 235 170 204 201 q 309 139 266 139 l 484 139 q 557 170 526 139 q 587 243 587 200 q 609 295 587 276 q 657 313 631 313 q 705 295 683 313 q 726 243 726 276 q 655 71 726 142 q 484 0 585 0 l 309 0 q 136 72 208 0 q 65 244 65 143 m 326 835 l 326 904 q 348 955 326 937 q 396 973 370 973 q 444 955 422 973 q 465 904 465 937 l 465 835 q 444 784 465 802 q 396 766 422 766 q 348 784 370 766 q 326 835 326 802 z "},"À":{"ha":791,"x_min":65,"x_max":726,"o":"m 65 69 l 65 449 q 74 533 65 513 l 237 922 q 264 962 250 951 q 309 974 279 974 l 484 974 q 527 962 513 974 q 554 922 541 951 l 718 533 q 726 449 726 515 l 726 69 q 705 17 726 36 q 657 -1 683 -1 q 609 17 631 -1 q 587 69 587 36 l 587 208 l 204 208 l 204 69 q 182 17 204 36 q 135 -1 161 -1 q 87 17 109 -1 q 65 69 65 36 m 204 347 l 587 347 l 587 488 l 437 835 l 354 835 l 204 488 l 204 347 m 231 1118 q 208 1166 208 1139 q 231 1216 208 1194 q 281 1238 253 1238 q 300 1235 291 1238 q 317 1225 309 1232 q 332 1213 326 1218 q 347 1198 337 1208 q 359 1185 356 1188 l 514 1185 q 564 1165 545 1185 q 583 1116 583 1146 q 564 1065 583 1085 q 514 1046 545 1046 l 335 1046 q 302 1054 319 1046 q 277 1070 286 1063 q 252 1096 269 1077 q 231 1118 234 1115 z "},"Á":{"ha":791,"x_min":65,"x_max":726,"o":"m 65 69 l 65 449 q 74 533 65 513 l 237 922 q 264 962 250 951 q 309 974 279 974 l 484 974 q 527 962 513 974 q 554 922 541 951 l 718 533 q 726 449 726 515 l 726 69 q 705 17 726 36 q 657 -1 683 -1 q 609 17 631 -1 q 587 69 587 36 l 587 208 l 204 208 l 204 69 q 182 17 204 36 q 135 -1 161 -1 q 87 17 109 -1 q 65 69 65 36 m 204 347 l 587 347 l 587 488 l 437 835 l 354 835 l 204 488 l 204 347 m 228 1066 q 218 1076 228 1066 q 208 1116 208 1086 q 228 1165 208 1145 q 278 1185 248 1185 l 432 1185 q 449 1201 434 1187 q 469 1221 463 1216 q 488 1232 475 1225 q 513 1238 500 1238 q 562 1216 541 1238 q 583 1166 583 1194 q 562 1118 583 1139 q 541 1096 558 1114 q 516 1070 524 1078 q 491 1054 507 1063 q 458 1046 475 1046 l 278 1046 q 228 1066 248 1046 z "},"Â":{"ha":791,"x_min":65,"x_max":726,"o":"m 65 69 l 65 449 q 74 533 65 513 l 237 922 q 264 962 250 951 q 309 974 279 974 l 484 974 q 527 962 513 974 q 554 922 541 951 l 718 533 q 726 449 726 515 l 726 69 q 705 17 726 36 q 657 -1 683 -1 q 609 17 631 -1 q 587 69 587 36 l 587 208 l 204 208 l 204 69 q 182 17 204 36 q 135 -1 161 -1 q 87 17 109 -1 q 65 69 65 36 m 204 347 l 587 347 l 587 488 l 437 835 l 354 835 l 204 488 l 204 347 m 259 1066 q 255 1073 259 1066 q 248 1093 252 1079 q 250 1123 245 1107 q 269 1153 256 1139 l 347 1231 q 396 1253 369 1253 q 446 1231 424 1253 l 524 1153 q 545 1112 542 1135 q 536 1071 547 1088 q 508 1042 525 1054 q 467 1033 490 1030 q 425 1054 444 1036 l 396 1084 l 367 1054 q 337 1035 353 1040 q 307 1034 321 1030 q 280 1045 293 1037 q 259 1066 267 1053 z "},"Ã":{"ha":791,"x_min":65,"x_max":726,"o":"m 65 69 l 65 449 q 74 533 65 513 l 237 922 q 264 962 250 951 q 309 974 279 974 l 484 974 q 527 962 513 974 q 554 922 541 951 l 718 533 q 726 449 726 515 l 726 69 q 705 17 726 36 q 657 -1 683 -1 q 609 17 631 -1 q 587 69 587 36 l 587 208 l 204 208 l 204 69 q 182 17 204 36 q 135 -1 161 -1 q 87 17 109 -1 q 65 69 65 36 m 174 1080 q 170 1087 174 1080 q 163 1107 166 1093 q 164 1137 159 1121 q 183 1166 170 1153 l 232 1215 q 285 1238 254 1238 l 378 1238 q 399 1234 391 1238 q 421 1215 406 1230 l 450 1186 l 481 1186 l 510 1215 q 551 1236 528 1234 q 592 1227 574 1239 q 621 1199 609 1216 q 629 1158 632 1181 q 608 1117 627 1135 l 559 1068 q 505 1047 538 1047 l 425 1047 q 371 1068 392 1047 l 340 1099 l 313 1099 l 282 1068 q 253 1049 269 1055 q 222 1048 237 1044 q 195 1059 208 1051 q 174 1080 182 1067 m 204 347 l 587 347 l 587 488 l 437 835 l 354 835 l 204 488 l 204 347 z "},"Ä":{"ha":791,"x_min":65,"x_max":726,"o":"m 65 69 l 65 449 q 74 533 65 513 l 237 922 q 264 962 250 951 q 309 974 279 974 l 484 974 q 527 962 513 974 q 554 922 541 951 l 718 533 q 726 449 726 515 l 726 69 q 705 17 726 36 q 657 -1 683 -1 q 609 17 631 -1 q 587 69 587 36 l 587 208 l 204 208 l 204 69 q 182 17 204 36 q 135 -1 161 -1 q 87 17 109 -1 q 65 69 65 36 m 65 1112 l 65 1181 q 87 1233 65 1214 q 135 1251 109 1251 q 182 1233 161 1251 q 204 1181 204 1214 l 204 1112 q 182 1060 204 1079 q 135 1042 161 1042 q 87 1060 109 1042 q 65 1112 65 1079 m 204 347 l 587 347 l 587 488 l 437 835 l 354 835 l 204 488 l 204 347 m 587 1112 l 587 1181 q 609 1233 587 1214 q 657 1251 631 1251 q 705 1233 683 1251 q 726 1181 726 1214 l 726 1112 q 705 1060 726 1079 q 657 1042 683 1042 q 609 1060 631 1042 q 587 1112 587 1079 z "},"Å":{"ha":791,"x_min":65,"x_max":726,"o":"m 65 69 l 65 449 q 74 533 65 513 l 237 922 q 264 962 250 951 q 309 974 279 974 l 484 974 q 527 962 513 974 q 554 922 541 951 l 718 533 q 726 449 726 515 l 726 69 q 705 17 726 36 q 657 -1 683 -1 q 609 17 631 -1 q 587 69 587 36 l 587 208 l 204 208 l 204 69 q 182 17 204 36 q 135 -1 161 -1 q 87 17 109 -1 q 65 69 65 36 m 204 347 l 587 347 l 587 488 l 437 835 l 354 835 l 204 488 l 204 347 m 273 1146 l 273 1181 q 310 1266 273 1230 q 396 1303 346 1303 q 482 1266 446 1303 q 518 1181 518 1230 l 518 1146 q 482 1059 518 1095 q 396 1023 446 1023 q 310 1059 346 1023 q 273 1146 273 1095 m 345 1146 q 359 1109 345 1124 q 396 1093 374 1093 q 432 1108 418 1093 q 447 1146 447 1124 l 447 1181 q 432 1217 447 1202 q 396 1232 418 1232 q 359 1217 374 1232 q 345 1181 345 1202 l 345 1146 z "},"Æ":{"ha":791,"x_min":64,"x_max":726,"o":"m 64 69 l 64 449 q 107 616 64 518 l 232 908 q 262 957 246 941 q 307 974 278 974 l 656 974 q 708 952 689 974 q 726 904 726 930 q 708 857 726 878 q 656 835 689 835 l 522 835 l 522 555 l 656 555 q 708 534 689 555 q 726 486 726 512 q 708 438 726 460 q 656 416 689 416 l 522 416 l 522 139 l 656 139 q 708 117 689 139 q 726 70 726 96 q 708 22 726 43 q 656 0 689 0 l 453 0 q 404 21 425 0 q 383 69 383 41 l 383 208 l 203 208 l 203 69 q 181 17 203 36 q 133 -1 159 -1 q 85 17 107 -1 q 64 69 64 36 m 203 347 l 383 347 l 383 835 l 353 835 l 245 581 q 230 544 239 566 q 215 511 220 523 q 207 483 211 500 q 203 449 203 466 l 203 347 z "},"Ç":{"ha":791,"x_min":65,"x_max":725,"o":"m 65 210 l 65 770 q 126 917 65 856 q 273 978 187 978 l 517 978 q 664 917 604 978 q 725 770 725 856 q 703 718 725 736 q 655 699 682 699 q 608 718 629 699 q 586 770 586 736 q 566 819 586 798 q 517 839 545 839 l 273 839 q 224 819 245 839 q 204 770 204 798 l 204 210 q 225 160 204 180 q 273 139 245 139 l 517 139 q 565 160 545 139 q 586 210 586 180 q 608 260 586 242 q 655 279 629 279 q 703 260 682 279 q 725 210 725 242 q 664 61 725 123 q 517 0 603 0 l 468 0 l 468 -69 q 450 -114 468 -87 l 408 -179 q 377 -197 397 -198 q 348 -181 356 -196 q 349 -146 339 -165 l 396 -69 q 349 -51 368 -69 q 329 0 329 -33 l 273 0 q 126 61 187 0 q 65 210 65 123 z "},"È":{"ha":791,"x_min":64,"x_max":726,"o":"m 64 69 l 64 904 q 85 953 64 932 q 134 974 106 974 l 656 974 q 708 952 689 974 q 726 904 726 930 q 708 857 726 878 q 656 835 689 835 l 203 835 l 203 555 l 656 555 q 708 534 689 555 q 726 486 726 512 q 708 438 726 460 q 656 416 689 416 l 203 416 l 203 139 l 656 139 q 708 117 689 139 q 726 70 726 96 q 708 22 726 43 q 656 0 689 0 l 134 0 q 85 21 106 0 q 64 69 64 41 m 231 1118 q 208 1166 208 1139 q 231 1216 208 1194 q 281 1238 253 1238 q 300 1235 291 1238 q 317 1225 309 1232 q 332 1213 326 1218 q 347 1198 337 1208 q 359 1185 356 1188 l 514 1185 q 564 1165 545 1185 q 583 1116 583 1146 q 564 1065 583 1085 q 514 1046 545 1046 l 335 1046 q 302 1054 319 1046 q 277 1070 286 1063 q 252 1096 269 1077 q 231 1118 234 1115 z "},"É":{"ha":791,"x_min":64,"x_max":726,"o":"m 64 69 l 64 904 q 85 953 64 932 q 134 974 106 974 l 656 974 q 708 952 689 974 q 726 904 726 930 q 708 857 726 878 q 656 835 689 835 l 203 835 l 203 555 l 656 555 q 708 534 689 555 q 726 486 726 512 q 708 438 726 460 q 656 416 689 416 l 203 416 l 203 139 l 656 139 q 708 117 689 139 q 726 70 726 96 q 708 22 726 43 q 656 0 689 0 l 134 0 q 85 21 106 0 q 64 69 64 41 m 228 1066 q 218 1076 228 1066 q 208 1116 208 1086 q 228 1165 208 1145 q 278 1185 248 1185 l 432 1185 q 449 1201 434 1187 q 469 1221 463 1216 q 488 1232 475 1225 q 513 1238 500 1238 q 562 1216 541 1238 q 583 1166 583 1194 q 562 1118 583 1139 q 541 1096 558 1114 q 516 1070 524 1078 q 491 1054 507 1063 q 458 1046 475 1046 l 278 1046 q 228 1066 248 1046 z "},"Ê":{"ha":791,"x_min":64,"x_max":726,"o":"m 64 69 l 64 904 q 85 953 64 932 q 134 974 106 974 l 656 974 q 708 952 689 974 q 726 904 726 930 q 708 857 726 878 q 656 835 689 835 l 203 835 l 203 555 l 656 555 q 708 534 689 555 q 726 486 726 512 q 708 438 726 460 q 656 416 689 416 l 203 416 l 203 139 l 656 139 q 708 117 689 139 q 726 70 726 96 q 708 22 726 43 q 656 0 689 0 l 134 0 q 85 21 106 0 q 64 69 64 41 m 259 1066 q 255 1073 259 1066 q 248 1093 252 1079 q 250 1123 245 1107 q 269 1153 256 1139 l 347 1231 q 396 1253 369 1253 q 446 1231 424 1253 l 524 1153 q 545 1112 542 1135 q 536 1071 547 1088 q 508 1042 525 1054 q 467 1033 490 1030 q 425 1054 444 1036 l 396 1084 l 367 1054 q 337 1035 353 1040 q 307 1034 321 1030 q 280 1045 293 1037 q 259 1066 267 1053 z "},"Ë":{"ha":791,"x_min":64,"x_max":726,"o":"m 64 69 l 64 904 q 85 953 64 932 q 134 974 106 974 l 656 974 q 708 952 689 974 q 726 904 726 930 q 708 857 726 878 q 656 835 689 835 l 203 835 l 203 555 l 656 555 q 708 534 689 555 q 726 486 726 512 q 708 438 726 460 q 656 416 689 416 l 203 416 l 203 139 l 656 139 q 708 117 689 139 q 726 70 726 96 q 708 22 726 43 q 656 0 689 0 l 134 0 q 85 21 106 0 q 64 69 64 41 m 65 1112 l 65 1181 q 87 1233 65 1214 q 135 1251 109 1251 q 182 1233 161 1251 q 204 1181 204 1214 l 204 1112 q 182 1060 204 1079 q 135 1042 161 1042 q 87 1060 109 1042 q 65 1112 65 1079 m 587 1112 l 587 1181 q 609 1233 587 1214 q 657 1251 631 1251 q 705 1233 683 1251 q 726 1181 726 1214 l 726 1112 q 705 1060 726 1079 q 657 1042 683 1042 q 609 1060 631 1042 q 587 1112 587 1079 z "},"Ì":{"ha":791,"x_min":64,"x_max":728,"o":"m 83 20 q 74 31 83 20 q 64 68 64 42 q 83 116 64 94 q 135 138 102 138 l 326 138 l 326 835 l 135 835 q 83 857 102 835 q 64 904 64 878 q 83 952 64 930 q 135 974 102 974 l 657 974 q 709 952 690 974 q 728 904 728 930 q 709 857 728 878 q 657 835 690 835 l 465 835 l 465 138 l 657 138 q 709 116 690 138 q 728 68 728 94 q 709 20 728 42 q 657 -1 690 -1 l 135 -1 q 83 20 102 -1 m 231 1118 q 208 1166 208 1139 q 231 1216 208 1194 q 281 1238 253 1238 q 300 1235 291 1238 q 317 1225 309 1232 q 332 1213 326 1218 q 347 1198 337 1208 q 359 1185 356 1188 l 514 1185 q 564 1165 545 1185 q 583 1116 583 1146 q 564 1065 583 1085 q 514 1046 545 1046 l 335 1046 q 302 1054 319 1046 q 277 1070 286 1063 q 252 1096 269 1077 q 231 1118 234 1115 z "},"Í":{"ha":791,"x_min":64,"x_max":728,"o":"m 83 20 q 74 31 83 20 q 64 68 64 42 q 83 116 64 94 q 135 138 102 138 l 326 138 l 326 835 l 135 835 q 83 857 102 835 q 64 904 64 878 q 83 952 64 930 q 135 974 102 974 l 657 974 q 709 952 690 974 q 728 904 728 930 q 709 857 728 878 q 657 835 690 835 l 465 835 l 465 138 l 657 138 q 709 116 690 138 q 728 68 728 94 q 709 20 728 42 q 657 -1 690 -1 l 135 -1 q 83 20 102 -1 m 228 1066 q 218 1076 228 1066 q 208 1116 208 1086 q 228 1165 208 1145 q 278 1185 248 1185 l 432 1185 q 449 1201 434 1187 q 469 1221 463 1216 q 488 1232 475 1225 q 513 1238 500 1238 q 562 1216 541 1238 q 583 1166 583 1194 q 562 1118 583 1139 q 541 1096 558 1114 q 516 1070 524 1078 q 491 1054 507 1063 q 458 1046 475 1046 l 278 1046 q 228 1066 248 1046 z "},"Î":{"ha":791,"x_min":64,"x_max":728,"o":"m 83 20 q 74 31 83 20 q 64 68 64 42 q 83 116 64 94 q 135 138 102 138 l 326 138 l 326 835 l 135 835 q 83 857 102 835 q 64 904 64 878 q 83 952 64 930 q 135 974 102 974 l 657 974 q 709 952 690 974 q 728 904 728 930 q 709 857 728 878 q 657 835 690 835 l 465 835 l 465 138 l 657 138 q 709 116 690 138 q 728 68 728 94 q 709 20 728 42 q 657 -1 690 -1 l 135 -1 q 83 20 102 -1 m 259 1066 q 255 1073 259 1066 q 248 1093 252 1079 q 250 1123 245 1107 q 269 1153 256 1139 l 347 1231 q 396 1253 369 1253 q 446 1231 424 1253 l 524 1153 q 545 1112 542 1135 q 536 1071 547 1088 q 508 1042 525 1054 q 467 1033 490 1030 q 425 1054 444 1036 l 396 1084 l 367 1054 q 337 1035 353 1040 q 307 1034 321 1030 q 280 1045 293 1037 q 259 1066 267 1053 z "},"Ï":{"ha":791,"x_min":64,"x_max":728,"o":"m 83 20 q 74 31 83 20 q 64 68 64 42 q 83 116 64 94 q 135 138 102 138 l 326 138 l 326 835 l 135 835 q 83 857 102 835 q 64 904 64 878 q 83 952 64 930 q 135 974 102 974 l 657 974 q 709 952 690 974 q 728 904 728 930 q 709 857 728 878 q 657 835 690 835 l 465 835 l 465 138 l 657 138 q 709 116 690 138 q 728 68 728 94 q 709 20 728 42 q 657 -1 690 -1 l 135 -1 q 83 20 102 -1 m 65 1112 l 65 1181 q 87 1233 65 1214 q 135 1251 109 1251 q 182 1233 161 1251 q 204 1181 204 1214 l 204 1112 q 182 1060 204 1079 q 135 1042 161 1042 q 87 1060 109 1042 q 65 1112 65 1079 m 587 1112 l 587 1181 q 609 1233 587 1214 q 657 1251 631 1251 q 705 1233 683 1251 q 726 1181 726 1214 l 726 1112 q 705 1060 726 1079 q 657 1042 683 1042 q 609 1060 631 1042 q 587 1112 587 1079 z "},"Ð":{"ha":791,"x_min":64,"x_max":726,"o":"m 83 439 q 74 450 83 439 q 64 487 64 461 q 83 535 64 513 q 135 557 102 557 l 204 557 l 204 904 q 225 953 204 932 q 273 974 245 974 l 518 974 q 665 913 604 974 q 726 765 726 852 l 726 210 q 665 61 726 123 q 518 0 604 0 l 273 0 q 225 21 245 0 q 204 69 204 42 l 204 418 l 135 418 q 83 439 102 418 m 343 139 l 518 139 q 567 160 547 139 q 587 210 587 180 l 587 765 q 567 814 587 794 q 518 835 547 835 l 343 835 l 343 557 l 421 557 q 473 535 454 557 q 492 487 492 513 q 473 439 492 461 q 421 418 454 418 l 343 418 l 343 139 z "},"Ñ":{"ha":791,"x_min":65,"x_max":726,"o":"m 65 68 l 65 907 q 91 962 65 945 q 150 971 117 980 q 200 935 182 963 l 587 310 l 587 904 q 609 956 587 937 q 657 975 631 975 q 705 956 683 975 q 726 904 726 937 l 726 66 q 701 11 726 28 q 643 2 675 -7 q 593 39 610 11 l 204 663 l 204 68 q 182 18 204 36 q 135 -1 161 -1 q 87 18 109 -1 q 65 68 65 36 m 174 1080 q 170 1087 174 1080 q 163 1107 166 1093 q 164 1137 159 1121 q 183 1166 170 1153 l 232 1215 q 285 1238 254 1238 l 378 1238 q 399 1234 391 1238 q 421 1215 406 1230 l 450 1186 l 481 1186 l 510 1215 q 551 1236 528 1234 q 592 1227 574 1239 q 621 1199 609 1216 q 629 1158 632 1181 q 608 1117 627 1135 l 559 1068 q 505 1047 538 1047 l 425 1047 q 371 1068 392 1047 l 340 1099 l 313 1099 l 282 1068 q 253 1049 269 1055 q 222 1048 237 1044 q 195 1059 208 1051 q 174 1080 182 1067 z "},"Ò":{"ha":791,"x_min":65,"x_max":725,"o":"m 65 210 l 65 765 q 126 913 65 852 q 273 974 187 974 l 517 974 q 664 913 603 974 q 725 765 725 852 l 725 210 q 664 61 725 123 q 517 0 603 0 l 273 0 q 126 61 187 0 q 65 210 65 123 m 204 210 q 225 160 204 180 q 273 139 245 139 l 517 139 q 565 160 545 139 q 586 210 586 180 l 586 765 q 566 814 586 793 q 517 835 545 835 l 273 835 q 225 814 245 835 q 204 765 204 793 l 204 210 m 231 1118 q 208 1166 208 1139 q 231 1216 208 1194 q 281 1238 253 1238 q 300 1235 291 1238 q 317 1225 309 1232 q 332 1213 326 1218 q 347 1198 337 1208 q 359 1185 356 1188 l 514 1185 q 564 1165 545 1185 q 583 1116 583 1146 q 564 1065 583 1085 q 514 1046 545 1046 l 335 1046 q 302 1054 319 1046 q 277 1070 286 1063 q 252 1096 269 1077 q 231 1118 234 1115 z "},"Ó":{"ha":791,"x_min":65,"x_max":725,"o":"m 65 210 l 65 765 q 126 913 65 852 q 273 974 187 974 l 517 974 q 664 913 603 974 q 725 765 725 852 l 725 210 q 664 61 725 123 q 517 0 603 0 l 273 0 q 126 61 187 0 q 65 210 65 123 m 204 210 q 225 160 204 180 q 273 139 245 139 l 517 139 q 565 160 545 139 q 586 210 586 180 l 586 765 q 566 814 586 793 q 517 835 545 835 l 273 835 q 225 814 245 835 q 204 765 204 793 l 204 210 m 228 1066 q 218 1076 228 1066 q 208 1116 208 1086 q 228 1165 208 1145 q 278 1185 248 1185 l 432 1185 q 449 1201 434 1187 q 469 1221 463 1216 q 488 1232 475 1225 q 513 1238 500 1238 q 562 1216 541 1238 q 583 1166 583 1194 q 562 1118 583 1139 q 541 1096 558 1114 q 516 1070 524 1078 q 491 1054 507 1063 q 458 1046 475 1046 l 278 1046 q 228 1066 248 1046 z "},"Ô":{"ha":791,"x_min":65,"x_max":725,"o":"m 65 210 l 65 765 q 126 913 65 852 q 273 974 187 974 l 517 974 q 664 913 603 974 q 725 765 725 852 l 725 210 q 664 61 725 123 q 517 0 603 0 l 273 0 q 126 61 187 0 q 65 210 65 123 m 204 210 q 225 160 204 180 q 273 139 245 139 l 517 139 q 565 160 545 139 q 586 210 586 180 l 586 765 q 566 814 586 793 q 517 835 545 835 l 273 835 q 225 814 245 835 q 204 765 204 793 l 204 210 m 259 1066 q 255 1073 259 1066 q 248 1093 252 1079 q 250 1123 245 1107 q 269 1153 256 1139 l 347 1231 q 396 1253 369 1253 q 446 1231 424 1253 l 524 1153 q 545 1112 542 1135 q 536 1071 547 1088 q 508 1042 525 1054 q 467 1033 490 1030 q 425 1054 444 1036 l 396 1084 l 367 1054 q 337 1035 353 1040 q 307 1034 321 1030 q 280 1045 293 1037 q 259 1066 267 1053 z "},"Õ":{"ha":791,"x_min":65,"x_max":725,"o":"m 65 210 l 65 765 q 126 913 65 852 q 273 974 187 974 l 517 974 q 664 913 603 974 q 725 765 725 852 l 725 210 q 664 61 725 123 q 517 0 603 0 l 273 0 q 126 61 187 0 q 65 210 65 123 m 174 1080 q 170 1087 174 1080 q 163 1107 166 1093 q 164 1137 159 1121 q 183 1166 170 1153 l 232 1215 q 285 1238 254 1238 l 378 1238 q 399 1234 391 1238 q 421 1215 406 1230 l 450 1186 l 481 1186 l 510 1215 q 551 1236 528 1234 q 592 1227 574 1239 q 621 1199 609 1216 q 629 1158 632 1181 q 608 1117 627 1135 l 559 1068 q 505 1047 538 1047 l 425 1047 q 371 1068 392 1047 l 340 1099 l 313 1099 l 282 1068 q 253 1049 269 1055 q 222 1048 237 1044 q 195 1059 208 1051 q 174 1080 182 1067 m 204 210 q 225 160 204 180 q 273 139 245 139 l 517 139 q 565 160 545 139 q 586 210 586 180 l 586 765 q 566 814 586 793 q 517 835 545 835 l 273 835 q 225 814 245 835 q 204 765 204 793 l 204 210 z "},"Ö":{"ha":791,"x_min":65,"x_max":726,"o":"m 65 210 l 65 765 q 126 913 65 852 q 273 974 187 974 l 517 974 q 664 913 603 974 q 725 765 725 852 l 725 210 q 664 61 725 123 q 517 0 603 0 l 273 0 q 126 61 187 0 q 65 210 65 123 m 65 1112 l 65 1181 q 87 1233 65 1214 q 135 1251 109 1251 q 182 1233 161 1251 q 204 1181 204 1214 l 204 1112 q 182 1060 204 1079 q 135 1042 161 1042 q 87 1060 109 1042 q 65 1112 65 1079 m 204 210 q 225 160 204 180 q 273 139 245 139 l 517 139 q 565 160 545 139 q 586 210 586 180 l 586 765 q 566 814 586 793 q 517 835 545 835 l 273 835 q 225 814 245 835 q 204 765 204 793 l 204 210 m 587 1112 l 587 1181 q 609 1233 587 1214 q 657 1251 631 1251 q 705 1233 683 1251 q 726 1181 726 1214 l 726 1112 q 705 1060 726 1079 q 657 1042 683 1042 q 609 1060 631 1042 q 587 1112 587 1079 z "},"×":{"ha":791,"x_min":64,"x_max":726,"o":"m 76 37 q 70 46 76 37 q 67 77 64 54 q 89 118 70 100 l 297 326 l 89 534 q 67 576 70 553 q 76 616 64 599 q 104 645 87 633 q 144 654 121 657 q 186 633 168 652 l 396 425 l 604 633 q 634 652 618 647 q 664 654 650 657 q 691 642 677 650 q 712 621 704 634 q 723 594 720 608 q 721 564 726 580 q 703 534 716 548 l 493 326 l 703 117 q 724 76 721 98 q 715 36 726 53 q 686 7 703 18 q 646 -1 669 -4 q 604 20 623 1 l 396 228 l 186 21 q 144 0 168 3 q 104 8 121 -3 q 76 37 87 20 z "},"Ø":{"ha":791,"x_min":65,"x_max":725,"o":"m 65 208 l 65 765 q 126 913 65 852 q 273 974 187 974 l 517 974 q 664 913 603 974 q 725 765 725 852 l 725 208 q 664 61 725 122 q 517 0 604 0 l 273 0 q 126 61 187 0 q 65 208 65 122 m 204 385 l 582 787 q 557 822 574 808 q 517 835 539 835 l 273 835 q 225 814 245 835 q 204 765 204 793 l 204 385 m 208 186 q 233 152 216 165 q 273 139 251 139 l 517 139 q 565 160 545 139 q 586 208 586 180 l 586 589 l 208 186 z "},"Ù":{"ha":791,"x_min":65,"x_max":726,"o":"m 65 208 l 65 904 q 87 955 65 937 q 135 973 109 973 q 182 955 161 973 q 204 904 204 937 l 204 208 q 225 160 204 180 q 273 139 245 139 l 518 139 q 567 160 546 139 q 587 208 587 180 l 587 904 q 609 955 587 937 q 657 973 631 973 q 705 955 683 973 q 726 904 726 937 l 726 208 q 666 61 726 122 q 518 0 605 0 l 273 0 q 126 61 187 0 q 65 208 65 122 m 231 1118 q 208 1166 208 1139 q 231 1216 208 1194 q 281 1238 253 1238 q 300 1235 291 1238 q 317 1225 309 1232 q 332 1213 326 1218 q 347 1198 337 1208 q 359 1185 356 1188 l 514 1185 q 564 1165 545 1185 q 583 1116 583 1146 q 564 1065 583 1085 q 514 1046 545 1046 l 335 1046 q 302 1054 319 1046 q 277 1070 286 1063 q 252 1096 269 1077 q 231 1118 234 1115 z "},"Ú":{"ha":791,"x_min":65,"x_max":726,"o":"m 65 208 l 65 904 q 87 955 65 937 q 135 973 109 973 q 182 955 161 973 q 204 904 204 937 l 204 208 q 225 160 204 180 q 273 139 245 139 l 518 139 q 567 160 546 139 q 587 208 587 180 l 587 904 q 609 955 587 937 q 657 973 631 973 q 705 955 683 973 q 726 904 726 937 l 726 208 q 666 61 726 122 q 518 0 605 0 l 273 0 q 126 61 187 0 q 65 208 65 122 m 228 1066 q 218 1076 228 1066 q 208 1116 208 1086 q 228 1165 208 1145 q 278 1185 248 1185 l 432 1185 q 449 1201 434 1187 q 469 1221 463 1216 q 488 1232 475 1225 q 513 1238 500 1238 q 562 1216 541 1238 q 583 1166 583 1194 q 562 1118 583 1139 q 541 1096 558 1114 q 516 1070 524 1078 q 491 1054 507 1063 q 458 1046 475 1046 l 278 1046 q 228 1066 248 1046 z "},"Û":{"ha":791,"x_min":65,"x_max":726,"o":"m 65 208 l 65 904 q 87 955 65 937 q 135 973 109 973 q 182 955 161 973 q 204 904 204 937 l 204 208 q 225 160 204 180 q 273 139 245 139 l 518 139 q 567 160 546 139 q 587 208 587 180 l 587 904 q 609 955 587 937 q 657 973 631 973 q 705 955 683 973 q 726 904 726 937 l 726 208 q 666 61 726 122 q 518 0 605 0 l 273 0 q 126 61 187 0 q 65 208 65 122 m 259 1066 q 255 1073 259 1066 q 248 1093 252 1079 q 250 1123 245 1107 q 269 1153 256 1139 l 347 1231 q 396 1253 369 1253 q 446 1231 424 1253 l 524 1153 q 545 1112 542 1135 q 536 1071 547 1088 q 508 1042 525 1054 q 467 1033 490 1030 q 425 1054 444 1036 l 396 1084 l 367 1054 q 337 1035 353 1040 q 307 1034 321 1030 q 280 1045 293 1037 q 259 1066 267 1053 z "},"Ü":{"ha":791,"x_min":65,"x_max":726,"o":"m 65 208 l 65 904 q 87 955 65 937 q 135 973 109 973 q 182 955 161 973 q 204 904 204 937 l 204 208 q 225 160 204 180 q 273 139 245 139 l 518 139 q 567 160 546 139 q 587 208 587 180 l 587 904 q 609 955 587 937 q 657 973 631 973 q 705 955 683 973 q 726 904 726 937 l 726 208 q 666 61 726 122 q 518 0 605 0 l 273 0 q 126 61 187 0 q 65 208 65 122 m 65 1112 l 65 1181 q 87 1233 65 1214 q 135 1251 109 1251 q 182 1233 161 1251 q 204 1181 204 1214 l 204 1112 q 182 1060 204 1079 q 135 1042 161 1042 q 87 1060 109 1042 q 65 1112 65 1079 m 587 1112 l 587 1181 q 609 1233 587 1214 q 657 1251 631 1251 q 705 1233 683 1251 q 726 1181 726 1214 l 726 1112 q 705 1060 726 1079 q 657 1042 683 1042 q 609 1060 631 1042 q 587 1112 587 1079 z "},"Ý":{"ha":791,"x_min":64,"x_max":726,"o":"m 64 859 l 64 904 q 85 956 64 937 q 133 975 107 975 q 181 956 159 975 q 203 904 203 937 l 203 825 l 396 593 l 587 825 l 587 904 q 609 956 587 937 q 657 975 631 975 q 705 956 683 975 q 726 904 726 937 l 726 859 q 722 777 726 795 q 686 718 714 751 l 465 460 l 465 68 q 444 17 465 35 q 396 -1 422 -1 q 348 17 370 -1 q 326 68 326 35 l 326 460 l 104 718 q 75 764 83 743 q 65 800 66 785 q 64 859 64 814 m 228 1066 q 218 1076 228 1066 q 208 1116 208 1086 q 228 1165 208 1145 q 278 1185 248 1185 l 432 1185 q 449 1201 434 1187 q 469 1221 463 1216 q 488 1232 475 1225 q 513 1238 500 1238 q 562 1216 541 1238 q 583 1166 583 1194 q 562 1118 583 1139 q 541 1096 558 1114 q 516 1070 524 1078 q 491 1054 507 1063 q 458 1046 475 1046 l 278 1046 q 228 1066 248 1046 z "},"Þ":{"ha":791,"x_min":65,"x_max":726,"o":"m 65 0 l 65 975 q 85 1025 65 1005 q 135 1044 105 1044 q 184 1025 165 1044 q 204 975 204 1005 l 204 765 l 484 765 q 655 694 585 765 q 726 522 726 623 l 726 453 q 655 280 726 351 q 484 208 585 208 l 204 208 l 204 0 q 184 -50 204 -30 q 135 -69 165 -69 q 85 -50 105 -69 q 65 0 65 -30 m 204 347 l 484 347 q 557 378 526 347 q 587 453 587 410 l 587 522 q 557 596 587 565 q 484 627 526 627 l 204 627 l 204 347 z "},"ß":{"ha":791,"x_min":65,"x_max":726,"o":"m 65 69 l 65 722 q 137 903 65 831 q 309 974 208 974 l 482 974 q 655 903 583 974 q 726 730 726 831 l 726 661 q 707 565 726 610 q 653 488 688 519 q 726 314 726 416 l 726 244 q 655 72 726 143 q 482 0 583 0 l 378 0 q 326 22 345 0 q 307 70 307 43 q 326 117 307 96 q 378 139 345 139 l 482 139 q 556 170 526 139 q 587 244 587 201 l 587 314 q 558 386 587 355 q 486 418 528 416 l 378 418 q 326 439 345 418 q 307 487 307 461 q 326 535 307 513 q 378 557 345 557 l 486 557 q 557 588 528 557 q 587 661 587 619 l 587 730 q 556 804 587 773 q 482 835 526 835 l 309 835 q 235 803 266 835 q 204 722 204 771 l 204 69 q 182 17 204 36 q 135 -1 161 -1 q 87 17 109 -1 q 65 69 65 36 z "},"à":{"ha":791,"x_min":65,"x_max":726,"o":"m 65 69 l 65 449 q 74 533 65 513 l 237 922 q 264 962 250 951 q 309 974 279 974 l 484 974 q 527 962 513 974 q 554 922 541 951 l 718 533 q 726 449 726 515 l 726 69 q 705 17 726 36 q 657 -1 683 -1 q 609 17 631 -1 q 587 69 587 36 l 587 208 l 204 208 l 204 69 q 182 17 204 36 q 135 -1 161 -1 q 87 17 109 -1 q 65 69 65 36 m 204 347 l 587 347 l 587 488 l 437 835 l 354 835 l 204 488 l 204 347 m 231 1117 q 208 1165 208 1137 q 231 1215 208 1193 q 281 1236 253 1236 q 300 1233 291 1236 q 317 1223 309 1230 q 332 1212 326 1217 q 347 1197 337 1207 q 359 1183 356 1187 l 514 1183 q 564 1164 545 1183 q 583 1114 583 1144 q 564 1064 583 1083 q 514 1044 545 1044 l 335 1044 q 302 1053 319 1044 q 277 1068 286 1061 q 252 1095 269 1076 q 231 1117 234 1114 z "},"á":{"ha":791,"x_min":65,"x_max":726,"o":"m 65 69 l 65 449 q 74 533 65 513 l 237 922 q 264 962 250 951 q 309 974 279 974 l 484 974 q 527 962 513 974 q 554 922 541 951 l 718 533 q 726 449 726 515 l 726 69 q 705 17 726 36 q 657 -1 683 -1 q 609 17 631 -1 q 587 69 587 36 l 587 208 l 204 208 l 204 69 q 182 17 204 36 q 135 -1 161 -1 q 87 17 109 -1 q 65 69 65 36 m 204 347 l 587 347 l 587 488 l 437 835 l 354 835 l 204 488 l 204 347 m 228 1064 q 218 1074 228 1064 q 208 1114 208 1084 q 228 1163 208 1143 q 278 1183 248 1183 l 432 1183 q 449 1200 434 1185 q 469 1219 463 1215 q 488 1230 475 1224 q 513 1236 500 1236 q 562 1215 541 1236 q 583 1165 583 1193 q 562 1117 583 1138 q 541 1095 558 1113 q 516 1069 524 1076 q 491 1053 507 1061 q 458 1044 475 1044 l 278 1044 q 228 1064 248 1044 z "},"â":{"ha":791,"x_min":65,"x_max":726,"o":"m 65 69 l 65 449 q 74 533 65 513 l 237 922 q 264 962 250 951 q 309 974 279 974 l 484 974 q 527 962 513 974 q 554 922 541 951 l 718 533 q 726 449 726 515 l 726 69 q 705 17 726 36 q 657 -1 683 -1 q 609 17 631 -1 q 587 69 587 36 l 587 208 l 204 208 l 204 69 q 182 17 204 36 q 135 -1 161 -1 q 87 17 109 -1 q 65 69 65 36 m 204 347 l 587 347 l 587 488 l 437 835 l 354 835 l 204 488 l 204 347 m 259 1065 q 255 1071 259 1065 q 248 1092 252 1078 q 250 1122 245 1106 q 269 1152 256 1138 l 347 1229 q 396 1251 370 1251 q 446 1229 423 1251 l 524 1152 q 545 1110 542 1133 q 536 1070 547 1087 q 508 1041 525 1053 q 467 1031 490 1029 q 425 1053 444 1034 l 396 1083 l 367 1053 q 337 1034 353 1039 q 307 1032 321 1029 q 280 1044 293 1036 q 259 1065 267 1052 z "},"ã":{"ha":791,"x_min":65,"x_max":726,"o":"m 65 69 l 65 449 q 74 533 65 513 l 237 922 q 264 962 250 951 q 309 974 279 974 l 484 974 q 527 962 513 974 q 554 922 541 951 l 718 533 q 726 449 726 515 l 726 69 q 705 17 726 36 q 657 -1 683 -1 q 609 17 631 -1 q 587 69 587 36 l 587 208 l 204 208 l 204 69 q 182 17 204 36 q 135 -1 161 -1 q 87 17 109 -1 q 65 69 65 36 m 174 1079 q 170 1085 174 1079 q 163 1106 166 1092 q 164 1136 159 1120 q 183 1165 170 1152 l 232 1214 q 285 1236 254 1236 l 378 1236 q 399 1233 391 1236 q 421 1214 406 1229 l 450 1185 l 481 1185 l 510 1214 q 551 1235 528 1232 q 592 1226 574 1238 q 621 1197 609 1215 q 629 1157 632 1180 q 608 1116 627 1134 l 559 1067 q 505 1046 538 1046 l 425 1046 q 371 1067 392 1046 l 340 1097 l 313 1097 l 282 1067 q 253 1048 269 1053 q 222 1046 237 1043 q 195 1058 208 1050 q 174 1079 182 1065 m 204 347 l 587 347 l 587 488 l 437 835 l 354 835 l 204 488 l 204 347 z "},"ä":{"ha":791,"x_min":65,"x_max":726,"o":"m 65 69 l 65 449 q 74 533 65 513 l 237 922 q 264 962 250 951 q 309 974 279 974 l 484 974 q 527 962 513 974 q 554 922 541 951 l 718 533 q 726 449 726 515 l 726 69 q 705 17 726 36 q 657 -1 683 -1 q 609 17 631 -1 q 587 69 587 36 l 587 208 l 204 208 l 204 69 q 182 17 204 36 q 135 -1 161 -1 q 87 17 109 -1 q 65 69 65 36 m 65 1111 l 65 1179 q 87 1231 65 1213 q 135 1250 109 1250 q 182 1231 161 1250 q 204 1179 204 1213 l 204 1111 q 182 1059 204 1078 q 135 1040 161 1040 q 87 1059 109 1040 q 65 1111 65 1078 m 204 347 l 587 347 l 587 488 l 437 835 l 354 835 l 204 488 l 204 347 m 587 1111 l 587 1179 q 609 1231 587 1213 q 657 1250 631 1250 q 705 1231 683 1250 q 726 1179 726 1213 l 726 1111 q 705 1059 726 1078 q 657 1040 683 1040 q 609 1059 631 1040 q 587 1111 587 1078 z "},"å":{"ha":791,"x_min":65,"x_max":726,"o":"m 65 69 l 65 449 q 74 533 65 513 l 237 922 q 264 962 250 951 q 309 974 279 974 l 484 974 q 527 962 513 974 q 554 922 541 951 l 718 533 q 726 449 726 515 l 726 69 q 705 17 726 36 q 657 -1 683 -1 q 609 17 631 -1 q 587 69 587 36 l 587 208 l 204 208 l 204 69 q 182 17 204 36 q 135 -1 161 -1 q 87 17 109 -1 q 65 69 65 36 m 204 347 l 587 347 l 587 488 l 437 835 l 354 835 l 204 488 l 204 347 m 273 1145 l 273 1179 q 310 1265 273 1229 q 396 1301 346 1301 q 482 1265 446 1301 q 518 1179 518 1229 l 518 1145 q 482 1058 518 1094 q 396 1022 446 1022 q 310 1058 346 1022 q 273 1145 273 1094 m 345 1145 q 359 1107 345 1123 q 396 1092 374 1092 q 432 1107 418 1092 q 447 1145 447 1122 l 447 1179 q 432 1216 447 1201 q 396 1231 418 1231 q 359 1216 374 1231 q 345 1179 345 1201 l 345 1145 z "},"æ":{"ha":791,"x_min":64,"x_max":726,"o":"m 64 69 l 64 449 q 107 616 64 518 l 232 908 q 262 957 246 941 q 307 974 278 974 l 656 974 q 708 952 689 974 q 726 904 726 930 q 708 857 726 878 q 656 835 689 835 l 522 835 l 522 555 l 656 555 q 708 534 689 555 q 726 486 726 512 q 708 438 726 460 q 656 416 689 416 l 522 416 l 522 139 l 656 139 q 708 117 689 139 q 726 70 726 96 q 708 22 726 43 q 656 0 689 0 l 453 0 q 404 21 425 0 q 383 69 383 41 l 383 208 l 203 208 l 203 69 q 181 17 203 36 q 133 -1 159 -1 q 85 17 107 -1 q 64 69 64 36 m 203 347 l 383 347 l 383 835 l 353 835 l 245 581 q 230 544 239 566 q 215 511 220 523 q 207 483 211 500 q 203 449 203 466 l 203 347 z "},"ç":{"ha":791,"x_min":65,"x_max":725,"o":"m 65 210 l 65 770 q 126 917 65 856 q 273 978 187 978 l 517 978 q 664 917 604 978 q 725 770 725 856 q 703 718 725 736 q 655 699 682 699 q 608 718 629 699 q 586 770 586 736 q 566 819 586 798 q 517 839 545 839 l 273 839 q 224 819 245 839 q 204 770 204 798 l 204 210 q 225 160 204 180 q 273 139 245 139 l 517 139 q 565 160 545 139 q 586 210 586 180 q 608 260 586 242 q 655 279 629 279 q 703 260 682 279 q 725 210 725 242 q 664 61 725 123 q 517 0 603 0 l 468 0 l 468 -69 q 450 -114 468 -87 l 408 -179 q 377 -197 397 -198 q 348 -181 356 -196 q 349 -146 339 -165 l 396 -69 q 349 -51 368 -69 q 329 0 329 -33 l 273 0 q 126 61 187 0 q 65 210 65 123 z "},"è":{"ha":791,"x_min":64,"x_max":726,"o":"m 64 69 l 64 904 q 85 953 64 932 q 134 974 106 974 l 656 974 q 708 952 689 974 q 726 904 726 930 q 708 857 726 878 q 656 835 689 835 l 203 835 l 203 555 l 656 555 q 708 534 689 555 q 726 486 726 512 q 708 438 726 460 q 656 416 689 416 l 203 416 l 203 139 l 656 139 q 708 117 689 139 q 726 70 726 96 q 708 22 726 43 q 656 0 689 0 l 134 0 q 85 21 106 0 q 64 69 64 41 m 231 1117 q 208 1165 208 1137 q 231 1215 208 1193 q 281 1236 253 1236 q 300 1233 291 1236 q 317 1223 309 1230 q 332 1212 326 1217 q 347 1197 337 1207 q 359 1183 356 1187 l 514 1183 q 564 1164 545 1183 q 583 1114 583 1144 q 564 1064 583 1083 q 514 1044 545 1044 l 335 1044 q 302 1053 319 1044 q 277 1068 286 1061 q 252 1095 269 1076 q 231 1117 234 1114 z "},"é":{"ha":791,"x_min":64,"x_max":726,"o":"m 64 69 l 64 904 q 85 953 64 932 q 134 974 106 974 l 656 974 q 708 952 689 974 q 726 904 726 930 q 708 857 726 878 q 656 835 689 835 l 203 835 l 203 555 l 656 555 q 708 534 689 555 q 726 486 726 512 q 708 438 726 460 q 656 416 689 416 l 203 416 l 203 139 l 656 139 q 708 117 689 139 q 726 70 726 96 q 708 22 726 43 q 656 0 689 0 l 134 0 q 85 21 106 0 q 64 69 64 41 m 228 1064 q 218 1074 228 1064 q 208 1114 208 1084 q 228 1163 208 1143 q 278 1183 248 1183 l 432 1183 q 449 1200 434 1185 q 469 1219 463 1215 q 488 1230 475 1224 q 513 1236 500 1236 q 562 1215 541 1236 q 583 1165 583 1193 q 562 1117 583 1138 q 541 1095 558 1113 q 516 1069 524 1076 q 491 1053 507 1061 q 458 1044 475 1044 l 278 1044 q 228 1064 248 1044 z "},"ê":{"ha":791,"x_min":64,"x_max":726,"o":"m 64 69 l 64 904 q 85 953 64 932 q 134 974 106 974 l 656 974 q 708 952 689 974 q 726 904 726 930 q 708 857 726 878 q 656 835 689 835 l 203 835 l 203 555 l 656 555 q 708 534 689 555 q 726 486 726 512 q 708 438 726 460 q 656 416 689 416 l 203 416 l 203 139 l 656 139 q 708 117 689 139 q 726 70 726 96 q 708 22 726 43 q 656 0 689 0 l 134 0 q 85 21 106 0 q 64 69 64 41 m 259 1065 q 255 1071 259 1065 q 248 1092 252 1078 q 250 1122 245 1106 q 269 1152 256 1138 l 347 1229 q 396 1251 370 1251 q 446 1229 423 1251 l 524 1152 q 545 1110 542 1133 q 536 1070 547 1087 q 508 1041 525 1053 q 467 1031 490 1029 q 425 1053 444 1034 l 396 1083 l 367 1053 q 337 1034 353 1039 q 307 1032 321 1029 q 280 1044 293 1036 q 259 1065 267 1052 z "},"ë":{"ha":791,"x_min":64,"x_max":726,"o":"m 64 69 l 64 904 q 85 953 64 932 q 134 974 106 974 l 656 974 q 708 952 689 974 q 726 904 726 930 q 708 857 726 878 q 656 835 689 835 l 203 835 l 203 555 l 656 555 q 708 534 689 555 q 726 486 726 512 q 708 438 726 460 q 656 416 689 416 l 203 416 l 203 139 l 656 139 q 708 117 689 139 q 726 70 726 96 q 708 22 726 43 q 656 0 689 0 l 134 0 q 85 21 106 0 q 64 69 64 41 m 65 1111 l 65 1179 q 87 1231 65 1213 q 135 1250 109 1250 q 182 1231 161 1250 q 204 1179 204 1213 l 204 1111 q 182 1059 204 1078 q 135 1040 161 1040 q 87 1059 109 1040 q 65 1111 65 1078 m 587 1111 l 587 1179 q 609 1231 587 1213 q 657 1250 631 1250 q 705 1231 683 1250 q 726 1179 726 1213 l 726 1111 q 705 1059 726 1078 q 657 1040 683 1040 q 609 1059 631 1040 q 587 1111 587 1078 z "},"ì":{"ha":791,"x_min":64,"x_max":728,"o":"m 83 20 q 74 31 83 20 q 64 68 64 42 q 83 116 64 94 q 135 138 102 138 l 326 138 l 326 835 l 135 835 q 83 857 102 835 q 64 904 64 878 q 83 952 64 930 q 135 974 102 974 l 657 974 q 709 952 690 974 q 728 904 728 930 q 709 857 728 878 q 657 835 690 835 l 465 835 l 465 138 l 657 138 q 709 116 690 138 q 728 68 728 94 q 709 20 728 42 q 657 -1 690 -1 l 135 -1 q 83 20 102 -1 m 231 1117 q 208 1165 208 1137 q 231 1215 208 1193 q 281 1236 253 1236 q 300 1233 291 1236 q 317 1223 309 1230 q 332 1212 326 1217 q 347 1197 337 1207 q 359 1183 356 1187 l 514 1183 q 564 1164 545 1183 q 583 1114 583 1144 q 564 1064 583 1083 q 514 1044 545 1044 l 335 1044 q 302 1053 319 1044 q 277 1068 286 1061 q 252 1095 269 1076 q 231 1117 234 1114 z "},"í":{"ha":791,"x_min":64,"x_max":728,"o":"m 83 20 q 74 31 83 20 q 64 68 64 42 q 83 116 64 94 q 135 138 102 138 l 326 138 l 326 835 l 135 835 q 83 857 102 835 q 64 904 64 878 q 83 952 64 930 q 135 974 102 974 l 657 974 q 709 952 690 974 q 728 904 728 930 q 709 857 728 878 q 657 835 690 835 l 465 835 l 465 138 l 657 138 q 709 116 690 138 q 728 68 728 94 q 709 20 728 42 q 657 -1 690 -1 l 135 -1 q 83 20 102 -1 m 228 1064 q 218 1074 228 1064 q 208 1114 208 1084 q 228 1163 208 1143 q 278 1183 248 1183 l 432 1183 q 449 1200 434 1185 q 469 1219 463 1215 q 488 1230 475 1224 q 513 1236 500 1236 q 562 1215 541 1236 q 583 1165 583 1193 q 562 1117 583 1138 q 541 1095 558 1113 q 516 1069 524 1076 q 491 1053 507 1061 q 458 1044 475 1044 l 278 1044 q 228 1064 248 1044 z "},"î":{"ha":791,"x_min":64,"x_max":728,"o":"m 83 20 q 74 31 83 20 q 64 68 64 42 q 83 116 64 94 q 135 138 102 138 l 326 138 l 326 835 l 135 835 q 83 857 102 835 q 64 904 64 878 q 83 952 64 930 q 135 974 102 974 l 657 974 q 709 952 690 974 q 728 904 728 930 q 709 857 728 878 q 657 835 690 835 l 465 835 l 465 138 l 657 138 q 709 116 690 138 q 728 68 728 94 q 709 20 728 42 q 657 -1 690 -1 l 135 -1 q 83 20 102 -1 m 259 1065 q 255 1071 259 1065 q 248 1092 252 1078 q 250 1122 245 1106 q 269 1152 256 1138 l 347 1229 q 396 1251 370 1251 q 446 1229 423 1251 l 524 1152 q 545 1110 542 1133 q 536 1070 547 1087 q 508 1041 525 1053 q 467 1031 490 1029 q 425 1053 444 1034 l 396 1083 l 367 1053 q 337 1034 353 1039 q 307 1032 321 1029 q 280 1044 293 1036 q 259 1065 267 1052 z "},"ï":{"ha":791,"x_min":64,"x_max":728,"o":"m 83 20 q 74 31 83 20 q 64 68 64 42 q 83 116 64 94 q 135 138 102 138 l 326 138 l 326 835 l 135 835 q 83 857 102 835 q 64 904 64 878 q 83 952 64 930 q 135 974 102 974 l 657 974 q 709 952 690 974 q 728 904 728 930 q 709 857 728 878 q 657 835 690 835 l 465 835 l 465 138 l 657 138 q 709 116 690 138 q 728 68 728 94 q 709 20 728 42 q 657 -1 690 -1 l 135 -1 q 83 20 102 -1 m 65 1111 l 65 1179 q 87 1231 65 1213 q 135 1250 109 1250 q 182 1231 161 1250 q 204 1179 204 1213 l 204 1111 q 182 1059 204 1078 q 135 1040 161 1040 q 87 1059 109 1040 q 65 1111 65 1078 m 587 1111 l 587 1179 q 609 1231 587 1213 q 657 1250 631 1250 q 705 1231 683 1250 q 726 1179 726 1213 l 726 1111 q 705 1059 726 1078 q 657 1040 683 1040 q 609 1059 631 1040 q 587 1111 587 1078 z "},"ð":{"ha":791,"x_min":66,"x_max":726,"o":"m 84 439 q 75 450 84 439 q 66 487 66 461 q 84 535 66 513 q 136 557 103 557 l 205 557 l 205 904 q 227 953 205 932 q 275 974 248 974 l 518 974 q 665 913 604 974 q 726 765 726 852 l 726 210 q 665 61 726 123 q 518 0 604 0 l 275 0 q 227 21 248 0 q 205 69 205 42 l 205 418 l 136 418 q 84 439 103 418 m 345 139 l 518 139 q 567 160 547 139 q 587 210 587 180 l 587 765 q 567 814 587 794 q 518 835 547 835 l 345 835 l 345 557 l 422 557 q 474 535 456 557 q 493 487 493 513 q 474 439 493 461 q 422 418 456 418 l 345 418 l 345 139 z "},"ñ":{"ha":791,"x_min":65,"x_max":726,"o":"m 65 68 l 65 907 q 91 962 65 945 q 150 971 117 980 q 200 935 182 963 l 587 310 l 587 904 q 609 956 587 937 q 657 975 631 975 q 705 956 683 975 q 726 904 726 937 l 726 66 q 701 11 726 28 q 643 2 675 -7 q 593 39 610 11 l 204 663 l 204 68 q 182 18 204 36 q 135 -1 161 -1 q 87 18 109 -1 q 65 68 65 36 m 174 1079 q 170 1085 174 1079 q 163 1106 166 1092 q 164 1136 159 1120 q 183 1165 170 1152 l 232 1214 q 285 1236 254 1236 l 378 1236 q 399 1233 391 1236 q 421 1214 406 1229 l 450 1185 l 481 1185 l 510 1214 q 551 1235 528 1232 q 592 1226 574 1238 q 621 1197 609 1215 q 629 1157 632 1180 q 608 1116 627 1134 l 559 1067 q 505 1046 538 1046 l 425 1046 q 371 1067 392 1046 l 340 1097 l 313 1097 l 282 1067 q 253 1048 269 1053 q 222 1046 237 1043 q 195 1058 208 1050 q 174 1079 182 1065 z "},"ò":{"ha":791,"x_min":65,"x_max":725,"o":"m 65 210 l 65 765 q 126 913 65 852 q 273 974 187 974 l 517 974 q 664 913 603 974 q 725 765 725 852 l 725 210 q 664 61 725 123 q 517 0 603 0 l 273 0 q 126 61 187 0 q 65 210 65 123 m 204 210 q 225 160 204 180 q 273 139 245 139 l 517 139 q 565 160 545 139 q 586 210 586 180 l 586 765 q 566 814 586 793 q 517 835 545 835 l 273 835 q 225 814 245 835 q 204 765 204 793 l 204 210 m 231 1117 q 208 1165 208 1137 q 231 1215 208 1193 q 281 1236 253 1236 q 300 1233 291 1236 q 317 1223 309 1230 q 332 1212 326 1217 q 347 1197 337 1207 q 359 1183 356 1187 l 514 1183 q 564 1164 545 1183 q 583 1114 583 1144 q 564 1064 583 1083 q 514 1044 545 1044 l 335 1044 q 302 1053 319 1044 q 277 1068 286 1061 q 252 1095 269 1076 q 231 1117 234 1114 z "},"ó":{"ha":791,"x_min":65,"x_max":725,"o":"m 65 210 l 65 765 q 126 913 65 852 q 273 974 187 974 l 517 974 q 664 913 603 974 q 725 765 725 852 l 725 210 q 664 61 725 123 q 517 0 603 0 l 273 0 q 126 61 187 0 q 65 210 65 123 m 204 210 q 225 160 204 180 q 273 139 245 139 l 517 139 q 565 160 545 139 q 586 210 586 180 l 586 765 q 566 814 586 793 q 517 835 545 835 l 273 835 q 225 814 245 835 q 204 765 204 793 l 204 210 m 228 1064 q 218 1074 228 1064 q 208 1114 208 1084 q 228 1163 208 1143 q 278 1183 248 1183 l 432 1183 q 449 1200 434 1185 q 469 1219 463 1215 q 488 1230 475 1224 q 513 1236 500 1236 q 562 1215 541 1236 q 583 1165 583 1193 q 562 1117 583 1138 q 541 1095 558 1113 q 516 1069 524 1076 q 491 1053 507 1061 q 458 1044 475 1044 l 278 1044 q 228 1064 248 1044 z "},"ô":{"ha":791,"x_min":65,"x_max":725,"o":"m 65 210 l 65 765 q 126 913 65 852 q 273 974 187 974 l 517 974 q 664 913 603 974 q 725 765 725 852 l 725 210 q 664 61 725 123 q 517 0 603 0 l 273 0 q 126 61 187 0 q 65 210 65 123 m 204 210 q 225 160 204 180 q 273 139 245 139 l 517 139 q 565 160 545 139 q 586 210 586 180 l 586 765 q 566 814 586 793 q 517 835 545 835 l 273 835 q 225 814 245 835 q 204 765 204 793 l 204 210 m 259 1065 q 255 1071 259 1065 q 248 1092 252 1078 q 250 1122 245 1106 q 269 1152 256 1138 l 347 1229 q 396 1251 370 1251 q 446 1229 423 1251 l 524 1152 q 545 1110 542 1133 q 536 1070 547 1087 q 508 1041 525 1053 q 467 1031 490 1029 q 425 1053 444 1034 l 396 1083 l 367 1053 q 337 1034 353 1039 q 307 1032 321 1029 q 280 1044 293 1036 q 259 1065 267 1052 z "},"õ":{"ha":791,"x_min":65,"x_max":725,"o":"m 65 210 l 65 765 q 126 913 65 852 q 273 974 187 974 l 517 974 q 664 913 603 974 q 725 765 725 852 l 725 210 q 664 61 725 123 q 517 0 603 0 l 273 0 q 126 61 187 0 q 65 210 65 123 m 174 1079 q 170 1085 174 1079 q 163 1106 166 1092 q 164 1136 159 1120 q 183 1165 170 1152 l 232 1214 q 285 1236 254 1236 l 378 1236 q 399 1233 391 1236 q 421 1214 406 1229 l 450 1185 l 481 1185 l 510 1214 q 551 1235 528 1232 q 592 1226 574 1238 q 621 1197 609 1215 q 629 1157 632 1180 q 608 1116 627 1134 l 559 1067 q 505 1046 538 1046 l 425 1046 q 371 1067 392 1046 l 340 1097 l 313 1097 l 282 1067 q 253 1048 269 1053 q 222 1046 237 1043 q 195 1058 208 1050 q 174 1079 182 1065 m 204 210 q 225 160 204 180 q 273 139 245 139 l 517 139 q 565 160 545 139 q 586 210 586 180 l 586 765 q 566 814 586 793 q 517 835 545 835 l 273 835 q 225 814 245 835 q 204 765 204 793 l 204 210 z "},"ö":{"ha":791,"x_min":65,"x_max":726,"o":"m 65 210 l 65 765 q 126 913 65 852 q 273 974 187 974 l 517 974 q 664 913 603 974 q 725 765 725 852 l 725 210 q 664 61 725 123 q 517 0 603 0 l 273 0 q 126 61 187 0 q 65 210 65 123 m 65 1111 l 65 1179 q 87 1231 65 1213 q 135 1250 109 1250 q 182 1231 161 1250 q 204 1179 204 1213 l 204 1111 q 182 1059 204 1078 q 135 1040 161 1040 q 87 1059 109 1040 q 65 1111 65 1078 m 204 210 q 225 160 204 180 q 273 139 245 139 l 517 139 q 565 160 545 139 q 586 210 586 180 l 586 765 q 566 814 586 793 q 517 835 545 835 l 273 835 q 225 814 245 835 q 204 765 204 793 l 204 210 m 587 1111 l 587 1179 q 609 1231 587 1213 q 657 1250 631 1250 q 705 1231 683 1250 q 726 1179 726 1213 l 726 1111 q 705 1059 726 1078 q 657 1040 683 1040 q 609 1059 631 1040 q 587 1111 587 1078 z "},"÷":{"ha":791,"x_min":64,"x_max":728,"o":"m 83 439 q 74 450 83 439 q 64 487 64 461 q 83 535 64 513 q 135 557 102 557 l 657 557 q 709 535 690 557 q 728 487 728 513 q 709 439 728 461 q 657 418 690 418 l 135 418 q 83 439 102 418 m 321 69 l 321 138 q 342 190 321 171 q 390 208 364 208 q 438 190 416 208 q 460 138 460 171 l 460 69 q 438 17 460 36 q 390 -1 416 -1 q 342 17 364 -1 q 321 69 321 36 m 321 840 l 321 908 q 342 960 321 941 q 390 979 364 979 q 438 960 416 979 q 460 908 460 941 l 460 840 q 438 788 460 807 q 390 770 416 770 q 342 788 364 770 q 321 840 321 807 z "},"ø":{"ha":791,"x_min":65,"x_max":725,"o":"m 65 208 l 65 765 q 126 913 65 852 q 273 974 187 974 l 517 974 q 664 913 603 974 q 725 765 725 852 l 725 208 q 664 61 725 122 q 517 0 604 0 l 273 0 q 126 61 187 0 q 65 208 65 122 m 204 385 l 582 787 q 557 822 574 808 q 517 835 539 835 l 273 835 q 225 814 245 835 q 204 765 204 793 l 204 385 m 208 186 q 233 152 216 165 q 273 139 251 139 l 517 139 q 565 160 545 139 q 586 208 586 180 l 586 589 l 208 186 z "},"ù":{"ha":791,"x_min":65,"x_max":726,"o":"m 65 208 l 65 904 q 87 955 65 937 q 135 973 109 973 q 182 955 161 973 q 204 904 204 937 l 204 208 q 225 160 204 180 q 273 139 245 139 l 518 139 q 567 160 546 139 q 587 208 587 180 l 587 904 q 609 955 587 937 q 657 973 631 973 q 705 955 683 973 q 726 904 726 937 l 726 208 q 666 61 726 122 q 518 0 605 0 l 273 0 q 126 61 187 0 q 65 208 65 122 m 231 1117 q 208 1165 208 1137 q 231 1215 208 1193 q 281 1236 253 1236 q 300 1233 291 1236 q 317 1223 309 1230 q 332 1212 326 1217 q 347 1197 337 1207 q 359 1183 356 1187 l 514 1183 q 564 1164 545 1183 q 583 1114 583 1144 q 564 1064 583 1083 q 514 1044 545 1044 l 335 1044 q 302 1053 319 1044 q 277 1068 286 1061 q 252 1095 269 1076 q 231 1117 234 1114 z "},"ú":{"ha":791,"x_min":65,"x_max":726,"o":"m 65 208 l 65 904 q 87 955 65 937 q 135 973 109 973 q 182 955 161 973 q 204 904 204 937 l 204 208 q 225 160 204 180 q 273 139 245 139 l 518 139 q 567 160 546 139 q 587 208 587 180 l 587 904 q 609 955 587 937 q 657 973 631 973 q 705 955 683 973 q 726 904 726 937 l 726 208 q 666 61 726 122 q 518 0 605 0 l 273 0 q 126 61 187 0 q 65 208 65 122 m 228 1064 q 218 1074 228 1064 q 208 1114 208 1084 q 228 1163 208 1143 q 278 1183 248 1183 l 432 1183 q 449 1200 434 1185 q 469 1219 463 1215 q 488 1230 475 1224 q 513 1236 500 1236 q 562 1215 541 1236 q 583 1165 583 1193 q 562 1117 583 1138 q 541 1095 558 1113 q 516 1069 524 1076 q 491 1053 507 1061 q 458 1044 475 1044 l 278 1044 q 228 1064 248 1044 z "},"û":{"ha":791,"x_min":65,"x_max":726,"o":"m 65 208 l 65 904 q 87 955 65 937 q 135 973 109 973 q 182 955 161 973 q 204 904 204 937 l 204 208 q 225 160 204 180 q 273 139 245 139 l 518 139 q 567 160 546 139 q 587 208 587 180 l 587 904 q 609 955 587 937 q 657 973 631 973 q 705 955 683 973 q 726 904 726 937 l 726 208 q 666 61 726 122 q 518 0 605 0 l 273 0 q 126 61 187 0 q 65 208 65 122 m 259 1065 q 255 1071 259 1065 q 248 1092 252 1078 q 250 1122 245 1106 q 269 1152 256 1138 l 347 1229 q 396 1251 370 1251 q 446 1229 423 1251 l 524 1152 q 545 1110 542 1133 q 536 1070 547 1087 q 508 1041 525 1053 q 467 1031 490 1029 q 425 1053 444 1034 l 396 1083 l 367 1053 q 337 1034 353 1039 q 307 1032 321 1029 q 280 1044 293 1036 q 259 1065 267 1052 z "},"ü":{"ha":791,"x_min":65,"x_max":726,"o":"m 65 208 l 65 904 q 87 955 65 937 q 135 973 109 973 q 182 955 161 973 q 204 904 204 937 l 204 208 q 225 160 204 180 q 273 139 245 139 l 518 139 q 567 160 546 139 q 587 208 587 180 l 587 904 q 609 955 587 937 q 657 973 631 973 q 705 955 683 973 q 726 904 726 937 l 726 208 q 666 61 726 122 q 518 0 605 0 l 273 0 q 126 61 187 0 q 65 208 65 122 m 65 1111 l 65 1179 q 87 1231 65 1213 q 135 1250 109 1250 q 182 1231 161 1250 q 204 1179 204 1213 l 204 1111 q 182 1059 204 1078 q 135 1040 161 1040 q 87 1059 109 1040 q 65 1111 65 1078 m 587 1111 l 587 1179 q 609 1231 587 1213 q 657 1250 631 1250 q 705 1231 683 1250 q 726 1179 726 1213 l 726 1111 q 705 1059 726 1078 q 657 1040 683 1040 q 609 1059 631 1040 q 587 1111 587 1078 z "},"ý":{"ha":791,"x_min":64,"x_max":726,"o":"m 64 859 l 64 904 q 85 956 64 937 q 133 975 107 975 q 181 956 159 975 q 203 904 203 937 l 203 825 l 396 593 l 587 825 l 587 904 q 609 956 587 937 q 657 975 631 975 q 705 956 683 975 q 726 904 726 937 l 726 859 q 722 777 726 795 q 686 718 714 751 l 465 460 l 465 68 q 444 17 465 35 q 396 -1 422 -1 q 348 17 370 -1 q 326 68 326 35 l 326 460 l 104 718 q 75 764 83 743 q 65 800 66 785 q 64 859 64 814 m 228 1064 q 218 1074 228 1064 q 208 1114 208 1084 q 228 1163 208 1143 q 278 1183 248 1183 l 432 1183 q 449 1200 434 1185 q 469 1219 463 1215 q 488 1230 475 1224 q 513 1236 500 1236 q 562 1215 541 1236 q 583 1165 583 1193 q 562 1117 583 1138 q 541 1095 558 1113 q 516 1069 524 1076 q 491 1053 507 1061 q 458 1044 475 1044 l 278 1044 q 228 1064 248 1044 z "},"þ":{"ha":791,"x_min":65,"x_max":726,"o":"m 65 69 l 65 905 q 85 955 65 935 q 135 975 105 975 q 184 955 165 975 q 204 905 204 935 l 204 765 l 484 765 q 655 694 585 765 q 726 522 726 623 l 726 453 q 655 280 726 351 q 484 208 585 208 l 204 208 l 204 69 q 184 20 204 39 q 135 0 165 0 q 85 20 105 0 q 65 69 65 39 m 204 347 l 484 347 q 557 378 526 347 q 587 453 587 410 l 587 522 q 557 596 587 565 q 484 627 526 627 l 204 627 l 204 347 z "},"ÿ":{"ha":791,"x_min":64,"x_max":726,"o":"m 64 859 l 64 904 q 85 956 64 937 q 133 975 107 975 q 181 956 159 975 q 203 904 203 937 l 203 825 l 396 593 l 587 825 l 587 904 q 609 956 587 937 q 657 975 631 975 q 705 956 683 975 q 726 904 726 937 l 726 859 q 722 777 726 795 q 686 718 714 751 l 465 460 l 465 68 q 444 17 465 35 q 396 -1 422 -1 q 348 17 370 -1 q 326 68 326 35 l 326 460 l 104 718 q 75 764 83 743 q 65 800 66 785 q 64 859 64 814 m 65 1111 l 65 1179 q 87 1231 65 1213 q 135 1250 109 1250 q 182 1231 161 1250 q 204 1179 204 1213 l 204 1111 q 182 1059 204 1078 q 135 1040 161 1040 q 87 1059 109 1040 q 65 1111 65 1078 m 587 1111 l 587 1179 q 609 1231 587 1213 q 657 1250 631 1250 q 705 1231 683 1250 q 726 1179 726 1213 l 726 1111 q 705 1059 726 1078 q 657 1040 683 1040 q 609 1059 631 1040 q 587 1111 587 1078 z "},"Œ":{"ha":791,"x_min":66,"x_max":724,"o":"m 66 210 l 66 765 q 127 913 66 852 q 275 974 189 974 l 456 974 l 654 974 q 705 955 686 974 q 724 904 724 935 q 704 854 724 873 q 654 835 685 835 l 525 835 l 525 555 l 654 555 q 705 536 686 555 q 724 486 724 517 q 704 436 724 456 q 654 416 685 416 l 525 416 l 525 139 l 654 139 q 704 119 685 139 q 724 69 724 100 q 705 19 724 38 q 654 0 686 0 l 275 0 q 127 62 189 1 q 66 210 66 123 m 205 210 q 226 160 205 180 q 275 139 247 139 l 385 139 l 385 835 l 275 835 q 227 814 248 835 q 205 765 205 793 l 205 210 z "},"œ":{"ha":791,"x_min":66,"x_max":724,"o":"m 66 210 l 66 765 q 127 913 66 852 q 275 974 189 974 l 456 974 l 654 974 q 705 955 686 974 q 724 904 724 935 q 704 854 724 873 q 654 835 685 835 l 525 835 l 525 555 l 654 555 q 705 536 686 555 q 724 486 724 517 q 704 436 724 456 q 654 416 685 416 l 525 416 l 525 139 l 654 139 q 704 119 685 139 q 724 69 724 100 q 705 19 724 38 q 654 0 686 0 l 275 0 q 127 62 189 1 q 66 210 66 123 m 205 210 q 226 160 205 180 q 275 139 247 139 l 385 139 l 385 835 l 275 835 q 227 814 248 835 q 205 765 205 793 l 205 210 z "},"Ÿ":{"ha":791,"x_min":64,"x_max":726,"o":"m 64 859 l 64 904 q 85 956 64 937 q 133 975 107 975 q 181 956 159 975 q 203 904 203 937 l 203 825 l 396 593 l 587 825 l 587 904 q 609 956 587 937 q 657 975 631 975 q 705 956 683 975 q 726 904 726 937 l 726 859 q 722 777 726 795 q 686 718 714 751 l 465 460 l 465 68 q 444 17 465 35 q 396 -1 422 -1 q 348 17 370 -1 q 326 68 326 35 l 326 460 l 104 718 q 75 764 83 743 q 65 800 66 785 q 64 859 64 814 m 65 1112 l 65 1181 q 87 1233 65 1214 q 135 1251 109 1251 q 182 1233 161 1251 q 204 1181 204 1214 l 204 1112 q 182 1060 204 1079 q 135 1042 161 1042 q 87 1060 109 1042 q 65 1112 65 1079 m 587 1112 l 587 1181 q 609 1233 587 1214 q 657 1251 631 1251 q 705 1233 683 1251 q 726 1181 726 1214 l 726 1112 q 705 1060 726 1079 q 657 1042 683 1042 q 609 1060 631 1042 q 587 1112 587 1079 z "},"ˆ":{"ha":791,"x_min":243,"x_max":546,"o":"m 258 1065 q 254 1071 258 1065 q 247 1092 250 1078 q 249 1122 243 1106 q 268 1152 254 1138 l 346 1229 q 395 1251 368 1251 q 444 1229 422 1251 l 522 1152 q 543 1110 541 1133 q 535 1070 546 1087 q 506 1041 524 1053 q 466 1031 489 1029 q 424 1053 443 1034 l 395 1083 l 366 1053 q 336 1034 352 1039 q 306 1032 320 1029 q 279 1044 292 1036 q 258 1065 266 1052 z "},"˜":{"ha":791,"x_min":159,"x_max":632,"o":"m 174 1079 q 170 1085 174 1079 q 163 1106 166 1092 q 164 1136 159 1120 q 183 1165 170 1152 l 232 1214 q 285 1236 254 1236 l 378 1236 q 399 1233 391 1236 q 421 1214 406 1229 l 450 1185 l 481 1185 l 510 1214 q 551 1235 528 1232 q 592 1226 574 1238 q 621 1197 609 1215 q 629 1157 632 1180 q 608 1116 627 1134 l 559 1067 q 505 1046 538 1046 l 425 1046 q 371 1067 392 1046 l 340 1097 l 313 1097 l 282 1067 q 253 1048 269 1053 q 222 1046 237 1043 q 195 1058 208 1050 q 174 1079 182 1065 z "}," ":{"ha":651,"x_min":0,"x_max":0,"o":""}," ":{"ha":1303,"x_min":0,"x_max":0,"o":""}," ":{"ha":651,"x_min":0,"x_max":0,"o":""}," ":{"ha":1303,"x_min":0,"x_max":0,"o":""}," ":{"ha":434,"x_min":0,"x_max":0,"o":""}," ":{"ha":326,"x_min":0,"x_max":0,"o":""}," ":{"ha":217,"x_min":0,"x_max":0,"o":""}," ":{"ha":217,"x_min":0,"x_max":0,"o":""}," ":{"ha":163,"x_min":0,"x_max":0,"o":""}," ":{"ha":260,"x_min":0,"x_max":0,"o":""}," ":{"ha":72,"x_min":0,"x_max":0,"o":""},"‐":{"ha":791,"x_min":66,"x_max":726,"o":"m 84 437 q 75 448 84 437 q 66 485 66 458 q 84 532 66 511 q 136 554 103 554 l 656 554 q 708 532 689 554 q 726 485 726 511 q 708 437 726 458 q 656 415 689 415 l 136 415 q 84 437 103 415 z "},"‑":{"ha":791,"x_min":66,"x_max":726,"o":"m 84 437 q 75 448 84 437 q 66 485 66 458 q 84 532 66 511 q 136 554 103 554 l 656 554 q 708 532 689 554 q 726 485 726 511 q 708 437 726 458 q 656 415 689 415 l 136 415 q 84 437 103 415 z "},"‒":{"ha":791,"x_min":66,"x_max":726,"o":"m 84 437 q 75 448 84 437 q 66 485 66 458 q 84 532 66 511 q 136 554 103 554 l 656 554 q 708 532 689 554 q 726 485 726 511 q 708 437 726 458 q 656 415 689 415 l 136 415 q 84 437 103 415 z "},"–":{"ha":791,"x_min":64,"x_max":728,"o":"m 83 437 q 74 448 83 437 q 64 485 64 458 q 83 532 64 511 q 135 554 102 554 l 657 554 q 709 532 690 554 q 728 485 728 511 q 709 437 728 458 q 657 415 690 415 l 135 415 q 83 437 102 415 z "},"—":{"ha":791,"x_min":0,"x_max":791,"o":"m 19 437 q 9 448 19 437 q 0 485 0 458 q 19 532 0 511 q 71 554 37 554 l 721 554 q 773 532 754 554 q 791 485 791 511 q 773 437 791 458 q 721 415 754 415 l 71 415 q 19 437 37 415 z "},"‘":{"ha":791,"x_min":326,"x_max":465,"o":"m 326 708 l 326 846 q 345 890 326 863 l 386 956 q 417 974 397 975 q 447 957 438 972 q 446 922 455 942 l 399 846 q 446 827 427 846 q 465 777 465 809 l 465 708 q 444 656 465 675 q 396 637 422 637 q 348 656 370 637 q 326 708 326 675 z "},"’":{"ha":791,"x_min":326,"x_max":465,"o":"m 326 836 l 326 904 q 348 956 326 937 q 396 975 370 975 q 444 956 422 975 q 465 904 465 937 l 465 766 q 464 756 465 762 q 462 748 463 751 q 458 740 460 744 q 454 733 456 735 q 450 727 452 730 q 447 722 448 723 l 406 656 q 374 639 394 637 q 345 655 353 640 q 346 690 336 670 l 393 766 q 346 785 366 766 q 326 836 326 804 z "},"‚":{"ha":791,"x_min":326,"x_max":465,"o":"m 326 69 l 326 138 q 348 190 326 171 q 396 208 370 208 q 444 190 422 208 q 465 138 465 171 l 465 0 q 447 -45 465 -18 l 406 -110 q 374 -128 395 -129 q 345 -112 353 -127 q 346 -77 336 -96 l 393 0 q 346 18 366 0 q 326 69 326 37 z "},"“":{"ha":791,"x_min":200,"x_max":591,"o":"m 200 708 l 200 846 q 218 890 200 863 l 260 956 q 291 974 271 975 q 320 957 312 972 q 319 922 329 942 l 272 846 q 319 827 300 846 q 339 777 339 809 l 339 708 q 317 656 339 675 q 270 637 296 637 q 222 656 243 637 q 200 708 200 675 m 453 708 l 453 846 q 471 890 453 864 l 513 956 q 544 974 524 975 q 573 957 565 972 q 572 922 582 942 l 525 846 q 572 827 553 846 q 591 777 591 809 l 591 708 q 570 656 591 675 q 522 637 548 637 q 475 656 496 637 q 453 708 453 675 z "},"”":{"ha":791,"x_min":200,"x_max":591,"o":"m 200 836 l 200 904 q 222 956 200 937 q 270 975 243 975 q 317 956 296 975 q 339 904 339 937 l 339 766 q 338 756 339 762 q 336 748 337 751 q 332 740 334 744 q 328 733 330 735 q 324 727 326 730 q 321 722 321 723 l 279 656 q 248 639 268 637 q 219 655 227 640 q 220 690 210 670 l 267 766 q 219 785 239 766 q 200 836 200 803 m 453 836 l 453 904 q 475 956 453 937 q 522 975 496 975 q 570 956 548 975 q 591 904 591 937 l 591 766 q 574 722 591 749 l 532 656 q 500 639 520 637 q 471 655 479 640 q 472 690 463 670 l 519 766 q 472 785 492 766 q 453 836 453 803 z "},"„":{"ha":791,"x_min":200,"x_max":591,"o":"m 200 69 l 200 138 q 222 190 200 171 q 270 208 243 208 q 317 190 296 208 q 339 138 339 171 l 339 0 q 321 -45 339 -18 l 279 -110 q 248 -128 269 -129 q 219 -112 227 -127 q 220 -77 210 -96 l 267 0 q 219 18 239 0 q 200 69 200 37 m 453 69 l 453 138 q 475 190 453 171 q 522 208 496 208 q 570 190 548 208 q 591 138 591 171 l 591 0 q 574 -45 591 -18 l 532 -110 q 500 -128 521 -129 q 471 -112 479 -127 q 472 -77 463 -96 l 519 0 q 472 18 492 0 q 453 69 453 37 z "},"•":{"ha":791,"x_min":65,"x_max":726,"o":"m 65 440 l 65 536 q 162 771 65 673 q 396 869 260 869 q 562 825 486 869 q 682 703 637 780 q 726 536 726 627 l 726 440 q 682 273 726 350 q 562 152 637 197 q 396 107 486 107 q 162 205 260 107 q 65 440 65 303 z "},"…":{"ha":791,"x_min":49,"x_max":743,"o":"m 49 69 l 49 138 q 71 190 49 171 q 118 208 92 208 q 165 190 144 208 q 187 138 187 171 l 187 69 q 165 17 187 36 q 118 -1 144 -1 q 71 17 92 -1 q 49 69 49 36 m 326 69 l 326 138 q 348 190 326 171 q 396 208 370 208 q 444 190 422 208 q 465 138 465 171 l 465 69 q 444 17 465 36 q 396 -1 422 -1 q 348 17 370 -1 q 326 69 326 36 m 604 69 l 604 138 q 626 190 604 171 q 674 208 648 208 q 722 190 700 208 q 743 138 743 171 l 743 69 q 722 17 743 36 q 674 -1 700 -1 q 626 17 648 -1 q 604 69 604 36 z "}," ":{"ha":260,"x_min":0,"x_max":0,"o":""},"‹":{"ha":791,"x_min":151,"x_max":639,"o":"m 151 463 l 151 511 q 168 564 151 540 l 446 937 q 477 966 460 958 q 526 974 493 974 l 570 974 q 619 954 600 974 q 639 904 639 934 q 619 854 639 874 q 570 835 600 835 l 541 835 l 290 492 l 290 482 l 541 139 l 570 139 q 619 119 600 139 q 639 69 639 99 q 619 20 639 39 q 570 0 600 0 l 526 0 q 477 7 493 0 q 446 36 460 15 l 168 410 q 151 463 151 433 z "},"›":{"ha":791,"x_min":151,"x_max":639,"o":"m 171 20 q 161 30 171 20 q 151 69 151 39 q 171 119 151 99 q 221 139 191 139 l 250 139 l 500 482 l 500 492 l 250 835 l 221 835 q 171 854 191 835 q 151 904 151 874 q 171 954 151 934 q 221 974 191 974 l 264 974 q 313 966 297 974 q 345 937 330 958 l 623 564 q 639 511 639 541 l 639 463 q 623 410 639 432 l 345 36 q 313 7 330 15 q 264 0 297 0 l 221 0 q 171 20 191 0 z "}," ":{"ha":326,"x_min":0,"x_max":0,"o":""},"€":{"ha":791,"x_min":64,"x_max":726,"o":"m 83 341 q 74 352 83 341 q 64 389 64 363 q 83 437 64 415 q 135 458 102 458 l 199 458 l 199 525 l 135 525 q 83 547 102 525 q 64 594 64 568 q 83 642 64 621 q 135 664 102 664 l 199 664 l 199 765 q 260 913 199 852 q 407 974 321 974 l 518 974 q 665 913 604 974 q 726 765 726 852 q 705 713 726 732 q 657 694 683 694 q 609 713 631 694 q 587 765 587 732 q 567 814 587 793 q 518 835 546 835 l 407 835 q 358 814 378 835 q 338 765 338 793 l 338 664 l 503 664 q 553 642 535 664 q 572 594 572 621 q 553 547 572 568 q 503 525 535 525 l 338 525 l 338 458 l 503 458 q 553 437 535 458 q 572 389 572 415 q 553 341 572 363 q 503 319 535 319 l 338 319 l 338 208 q 358 159 338 180 q 407 139 378 139 l 518 139 q 567 160 546 139 q 587 208 587 180 q 609 260 587 241 q 657 279 631 279 q 705 260 683 279 q 726 208 726 241 q 666 61 726 122 q 518 0 605 0 l 407 0 q 259 61 320 0 q 199 208 199 122 l 199 319 l 135 319 q 83 341 102 319 z "},"™":{"ha":791,"x_min":47,"x_max":737,"o":"m 87 904 q 57 921 66 904 q 57 956 47 939 q 87 974 66 974 l 349 974 q 374 963 365 974 q 383 939 383 952 q 374 915 383 926 q 349 904 365 904 l 253 904 l 253 521 q 236 490 253 499 q 201 490 218 481 q 183 521 183 499 l 183 904 l 87 904 m 410 521 l 410 942 q 423 969 410 961 q 453 973 436 978 q 478 954 469 968 l 574 800 l 671 954 q 695 973 680 968 q 724 969 711 978 q 737 942 737 961 l 737 521 q 720 490 737 499 q 685 490 703 481 q 668 521 668 499 l 668 818 l 614 737 q 610 714 610 732 l 610 707 q 599 679 610 689 q 574 669 589 669 q 549 679 559 669 q 539 707 539 689 l 539 714 q 533 737 539 731 l 479 818 l 479 521 q 462 490 479 499 q 427 490 445 481 q 410 521 410 499 z "},"◼":{"ha":972,"x_min":0,"x_max":972,"o":"m 0 0 l 0 972 l 972 972 l 972 0 l 0 0 z "},"ﬁ":{"ha":791,"x_min":65,"x_max":726,"o":"m 65 69 l 65 904 q 86 953 65 932 q 135 974 107 974 l 310 974 q 362 952 343 974 q 380 904 380 930 q 362 857 380 878 q 310 835 343 835 l 204 835 l 204 555 l 310 555 q 362 534 343 555 q 380 486 380 512 q 362 438 380 460 q 310 416 343 416 l 204 416 l 204 69 q 182 17 204 36 q 135 -1 161 -1 q 87 17 109 -1 q 65 69 65 36 m 429 20 q 420 31 429 20 q 410 68 410 42 q 429 116 410 94 q 481 138 448 138 l 498 138 l 498 835 l 481 835 q 429 857 448 835 q 410 904 410 878 q 429 952 410 930 q 481 974 448 974 l 656 974 q 708 952 689 974 q 726 904 726 930 q 708 857 726 878 q 656 835 689 835 l 637 835 l 637 138 l 656 138 q 708 116 689 138 q 726 68 726 94 q 708 20 726 42 q 656 -1 689 -1 l 481 -1 q 429 20 448 -1 z "},"ﬂ":{"ha":791,"x_min":65,"x_max":726,"o":"m 65 69 l 65 904 q 86 953 65 932 q 135 974 107 974 l 310 974 q 362 952 343 974 q 380 904 380 930 q 362 857 380 878 q 310 835 343 835 l 204 835 l 204 555 l 310 555 q 362 534 343 555 q 380 486 380 512 q 362 438 380 460 q 310 416 343 416 l 204 416 l 204 69 q 182 17 204 36 q 135 -1 161 -1 q 87 17 109 -1 q 65 69 65 36 m 411 69 l 411 904 q 433 956 411 937 q 480 975 454 975 q 528 956 507 975 q 550 904 550 937 l 550 139 l 656 139 q 708 117 689 139 q 726 70 726 96 q 708 22 726 43 q 656 0 689 0 l 481 0 q 432 21 453 0 q 411 69 411 41 z "}}}
